<svg width="14" height="9" viewBox="0 0 14 9" fill="none" xmlns="http://www.w3.org/2000/svg">
<path d="M0.308162 0.308162C0.505537 0.110846 0.773199 0 1.05229 0C1.33138 0 1.59904 0.110846 1.79641 0.308162L7.00635 5.5181L12.2163 0.308162C12.4148 0.116438 12.6807 0.0103501 12.9566 0.0127482C13.2326 0.0151463 13.4966 0.125838 13.6917 0.320983C13.8869 0.516127 13.9976 0.78011 14 1.05608C14.0024 1.33204 13.8963 1.59791 13.7045 1.79641L7.75048 7.75048C7.55311 7.9478 7.28544 8.05864 7.00635 8.05864C6.72727 8.05864 6.4596 7.9478 6.26223 7.75048L0.308162 1.79641C0.110846 1.59904 0 1.33138 0 1.05229C0 0.773199 0.110846 0.505537 0.308162 0.308162Z" fill="white" fill-opacity="0.48"/>
</svg>
