<svg width="390" height="14" viewBox="0 0 390 14" fill="none" xmlns="http://www.w3.org/2000/svg">
<path d="M112.348 11.1406C109.975 11.1406 108.475 9.46484 108.475 6.76953C108.475 4.0918 109.986 2.4043 112.348 2.4043C114.264 2.4043 115.711 3.58203 115.934 5.3457H114.633C114.398 4.26172 113.496 3.55273 112.348 3.55273C110.812 3.55273 109.816 4.8125 109.816 6.76953C109.816 8.74414 110.801 9.99219 112.354 9.99219C113.531 9.99219 114.369 9.38867 114.633 8.36914H115.939C115.617 10.1152 114.293 11.1406 112.348 11.1406ZM120.779 2.4043C123.211 2.4043 124.74 4.08594 124.74 6.77539C124.74 9.46484 123.211 11.1406 120.779 11.1406C118.342 11.1406 116.818 9.46484 116.818 6.77539C116.818 4.08594 118.342 2.4043 120.779 2.4043ZM120.779 3.55859C119.174 3.55859 118.16 4.80078 118.16 6.77539C118.16 8.74414 119.174 9.98633 120.779 9.98633C122.385 9.98633 123.393 8.74414 123.393 6.77539C123.393 4.80078 122.385 3.55859 120.779 3.55859ZM127.271 11H125.994V2.54492H127.184L131.566 8.7793H131.613V2.54492H132.891V11H131.707L127.324 4.77148H127.271V11ZM135.732 11H134.455V2.54492H135.645L140.027 8.7793H140.074V2.54492H141.352V11H140.168L135.785 4.77148H135.732V11ZM148.283 9.86328V11H142.916V2.54492H148.283V3.67578H144.229V6.14844H148.066V7.23828H144.229V9.86328H148.283ZM153.199 11.1406C150.826 11.1406 149.326 9.46484 149.326 6.76953C149.326 4.0918 150.838 2.4043 153.199 2.4043C155.115 2.4043 156.562 3.58203 156.785 5.3457H155.484C155.25 4.26172 154.348 3.55273 153.199 3.55273C151.664 3.55273 150.668 4.8125 150.668 6.76953C150.668 8.74414 151.652 9.99219 153.205 9.99219C154.383 9.99219 155.221 9.38867 155.484 8.36914H156.791C156.469 10.1152 155.145 11.1406 153.199 11.1406ZM161.021 11H159.709V3.67578H157.119V2.54492H163.605V3.67578H161.021V11ZM168.428 2.54492V7.91797C168.428 9.125 169.189 9.97461 170.537 9.97461C171.885 9.97461 172.652 9.125 172.652 7.91797V2.54492H173.959V8.0293C173.959 9.85156 172.658 11.1406 170.537 11.1406C168.416 11.1406 167.115 9.85156 167.115 8.0293V2.54492H168.428ZM175.518 2.54492H178.688C180.328 2.54492 181.471 3.67578 181.471 5.32227C181.471 6.97461 180.305 8.11133 178.646 8.11133H176.83V11H175.518V2.54492ZM176.83 3.65234V7.00977H178.336C179.479 7.00977 180.129 6.39453 180.129 5.32812C180.129 4.26172 179.479 3.65234 178.342 3.65234H176.83ZM186.029 11H184.717V3.67578H182.127V2.54492H188.613V3.67578H186.029V11ZM192.838 2.4043C195.27 2.4043 196.799 4.08594 196.799 6.77539C196.799 9.46484 195.27 11.1406 192.838 11.1406C190.4 11.1406 188.877 9.46484 188.877 6.77539C188.877 4.08594 190.4 2.4043 192.838 2.4043ZM192.838 3.55859C191.232 3.55859 190.219 4.80078 190.219 6.77539C190.219 8.74414 191.232 9.98633 192.838 9.98633C194.443 9.98633 195.451 8.74414 195.451 6.77539C195.451 4.80078 194.443 3.55859 192.838 3.55859ZM203.396 11.1582C201.709 11.1582 200.473 10.127 200.396 8.65039H201.65C201.744 9.48828 202.465 10.0625 203.408 10.0625C204.475 10.0625 205.213 9.31836 205.213 8.25781C205.213 7.19727 204.475 6.43555 203.42 6.43555C202.688 6.43555 202.055 6.76953 201.727 7.32617H200.525L200.971 2.54492H206.004V3.65234H202.025L201.791 6.24805H201.82C202.189 5.71484 202.881 5.39258 203.707 5.39258C205.33 5.39258 206.496 6.58203 206.496 8.22266C206.496 9.95703 205.219 11.1582 203.396 11.1582ZM210.645 11.1582C208.617 11.1582 207.416 9.45898 207.416 6.76367C207.416 4.08594 208.629 2.38672 210.645 2.38672C212.666 2.38672 213.861 4.08008 213.861 6.75781C213.861 9.45312 212.672 11.1582 210.645 11.1582ZM210.645 10.0566C211.852 10.0566 212.537 8.80859 212.537 6.76367C212.537 4.74805 211.84 3.48828 210.645 3.48828C209.449 3.48828 208.746 4.75391 208.746 6.76367C208.746 8.80273 209.438 10.0566 210.645 10.0566ZM223.107 11L222.334 8.71484H219.111L218.338 11H216.973L220.025 2.54492H221.443L224.496 11H223.107ZM220.705 3.95117L219.445 7.66016H222L220.74 3.95117H220.705ZM228.691 11.1406C226.318 11.1406 224.818 9.46484 224.818 6.76953C224.818 4.0918 226.33 2.4043 228.691 2.4043C230.607 2.4043 232.055 3.58203 232.277 5.3457H230.977C230.742 4.26172 229.84 3.55273 228.691 3.55273C227.156 3.55273 226.16 4.8125 226.16 6.76953C226.16 8.74414 227.145 9.99219 228.697 9.99219C229.875 9.99219 230.713 9.38867 230.977 8.36914H232.283C231.961 10.1152 230.637 11.1406 228.691 11.1406ZM237.035 11.1406C234.662 11.1406 233.162 9.46484 233.162 6.76953C233.162 4.0918 234.674 2.4043 237.035 2.4043C238.951 2.4043 240.398 3.58203 240.621 5.3457H239.32C239.086 4.26172 238.184 3.55273 237.035 3.55273C235.5 3.55273 234.504 4.8125 234.504 6.76953C234.504 8.74414 235.488 9.99219 237.041 9.99219C238.219 9.99219 239.057 9.38867 239.32 8.36914H240.627C240.305 10.1152 238.98 11.1406 237.035 11.1406ZM245.467 2.4043C247.898 2.4043 249.428 4.08594 249.428 6.77539C249.428 9.46484 247.898 11.1406 245.467 11.1406C243.029 11.1406 241.506 9.46484 241.506 6.77539C241.506 4.08594 243.029 2.4043 245.467 2.4043ZM245.467 3.55859C243.861 3.55859 242.848 4.80078 242.848 6.77539C242.848 8.74414 243.861 9.98633 245.467 9.98633C247.072 9.98633 248.08 8.74414 248.08 6.77539C248.08 4.80078 247.072 3.55859 245.467 3.55859ZM251.994 2.54492V7.91797C251.994 9.125 252.756 9.97461 254.104 9.97461C255.451 9.97461 256.219 9.125 256.219 7.91797V2.54492H257.525V8.0293C257.525 9.85156 256.225 11.1406 254.104 11.1406C251.982 11.1406 250.682 9.85156 250.682 8.0293V2.54492H251.994ZM260.361 11H259.084V2.54492H260.273L264.656 8.7793H264.703V2.54492H265.98V11H264.797L260.414 4.77148H260.361V11ZM270.955 11H269.643V3.67578H267.053V2.54492H273.539V3.67578H270.955V11ZM274.236 8.64453H275.531C275.625 9.48242 276.439 10.0332 277.553 10.0332C278.619 10.0332 279.387 9.48242 279.387 8.72656C279.387 8.07031 278.924 7.67773 277.828 7.4082L276.732 7.14453C275.18 6.76953 274.459 6.04297 274.459 4.86523C274.459 3.40625 275.73 2.4043 277.535 2.4043C279.322 2.4043 280.547 3.40625 280.588 4.86523H279.311C279.234 4.02148 278.537 3.51172 277.518 3.51172C276.498 3.51172 275.801 4.02734 275.801 4.77734C275.801 5.375 276.246 5.72656 277.336 5.99609L278.268 6.22461C280.002 6.63477 280.723 7.33203 280.723 8.56836C280.723 10.1504 279.463 11.1406 277.459 11.1406C275.584 11.1406 274.318 10.1738 274.236 8.64453Z" fill="#B8B8B8"/>
<path d="M0 7H100" stroke="url(#paint0_radial_85_4536)"/>
<path d="M0 7H100" stroke="url(#paint1_radial_85_4536)"/>
<path d="M290 7H390" stroke="url(#paint2_radial_85_4536)"/>
<path d="M290 7H390" stroke="url(#paint3_radial_85_4536)"/>
<defs>
<radialGradient id="paint0_radial_85_4536" cx="0" cy="0" r="1" gradientUnits="userSpaceOnUse" gradientTransform="translate(105.212 8.30638) rotate(-178.829) scale(110.25 11.6901)">
<stop offset="0.24392" stop-color="#FF1B90"/>
<stop offset="0.436673" stop-color="#F80261"/>
<stop offset="0.688476" stop-color="#ED00C0"/>
<stop offset="0.776787" stop-color="#C500E9"/>
<stop offset="0.893155" stop-color="#7017FF"/>
</radialGradient>
<radialGradient id="paint1_radial_85_4536" cx="0" cy="0" r="1" gradientUnits="userSpaceOnUse" gradientTransform="translate(34.9357 8.25028) rotate(-1.25949) scale(36.8381 1.85631)">
<stop stop-color="#FFD600"/>
<stop offset="0.484375" stop-color="#FF6930"/>
<stop offset="0.734375" stop-color="#FE3B36"/>
<stop offset="1" stop-color="#FE3B36" stop-opacity="0"/>
</radialGradient>
<radialGradient id="paint2_radial_85_4536" cx="0" cy="0" r="1" gradientUnits="userSpaceOnUse" gradientTransform="translate(395.212 8.30638) rotate(-178.829) scale(110.25 11.6901)">
<stop offset="0.24392" stop-color="#FF1B90"/>
<stop offset="0.436673" stop-color="#F80261"/>
<stop offset="0.688476" stop-color="#ED00C0"/>
<stop offset="0.776787" stop-color="#C500E9"/>
<stop offset="0.893155" stop-color="#7017FF"/>
</radialGradient>
<radialGradient id="paint3_radial_85_4536" cx="0" cy="0" r="1" gradientUnits="userSpaceOnUse" gradientTransform="translate(324.936 8.25028) rotate(-1.25949) scale(36.8381 1.85631)">
<stop stop-color="#FFD600"/>
<stop offset="0.484375" stop-color="#FF6930"/>
<stop offset="0.734375" stop-color="#FE3B36"/>
<stop offset="1" stop-color="#FE3B36" stop-opacity="0"/>
</radialGradient>
</defs>
</svg>
