<?xml version="1.0" encoding="UTF-8"?>
<svg xmlns="http://www.w3.org/2000/svg" xmlns:xlink="http://www.w3.org/1999/xlink" width="px" height="px" viewBox="0 0 2340 1560" version="1.1">
<defs>
<clipPath id="clip1">
  <path d="M 1049 278 L 1117 278 L 1117 388 L 1049 388 Z M 1049 278 "/>
</clipPath>
<clipPath id="clip2">
  <path d="M 739.058594 275.617188 C 739.058594 275.617188 536.988281 460.011719 627.921875 601.457031 C 600.140625 646.925781 446.058594 907.09375 627.921875 967.714844 C 809.785156 1028.335938 882.195312 969.394531 892.292969 967.714844 C 931.027344 967.714844 988.285156 952.5625 1003.4375 952.5625 C 1018.589844 952.5625 1028.699219 962.667969 1037.117188 969.402344 C 1045.539062 976.136719 1077.539062 969.394531 1075.851562 942.460938 C 1074.585938 922.246094 1071.800781 905.4375 1061.542969 894.464844 C 1058.121094 890.8125 1051.433594 886.886719 1047.222656 880.15625 C 1048.902344 856.582031 1038.804688 834.6875 1028.695312 819.535156 C 1018.589844 804.371094 1023.644531 755.546875 1023.644531 747.125 C 1023.644531 738.699219 1045.734375 742.003906 1072.484375 731.964844 C 1085.960938 726.910156 1093.550781 714.914062 1107.847656 701.652344 C 1124.292969 686.398438 1136.667969 662.804688 1146.582031 664.609375 C 1158.101562 666.703125 1185.328125 661.078125 1186.988281 645.242188 C 1187.996094 635.636719 1172.96875 623.050781 1158.359375 603.988281 C 1170.144531 592.203125 1175.207031 556.835938 1176.886719 524.847656 C 1178.566406 492.847656 1193.726562 406.964844 1197.09375 400.234375 C 1200.460938 393.5 1227.410156 368.246094 1239.1875 371.613281 C 1250.972656 374.972656 1225.71875 349.71875 1171.832031 356.460938 C 1139.839844 341.300781 1013.535156 268.882812 890.613281 267.203125 C 867.039062 243.628906 806.425781 213.316406 737.378906 213.316406 C 739.058594 236.890625 745.792969 263.828125 739.058594 275.617188 Z M 739.058594 275.617188 "/>
</clipPath>
<clipPath id="clip3">
  <path d="M 1121 322 L 1152 322 L 1152 369 L 1121 369 Z M 1121 322 "/>
</clipPath>
<clipPath id="clip4">
  <path d="M 739.058594 275.617188 C 739.058594 275.617188 536.988281 460.011719 627.921875 601.457031 C 600.140625 646.925781 446.058594 907.09375 627.921875 967.714844 C 809.785156 1028.335938 882.195312 969.394531 892.292969 967.714844 C 931.027344 967.714844 988.285156 952.5625 1003.4375 952.5625 C 1018.589844 952.5625 1028.699219 962.667969 1037.117188 969.402344 C 1045.539062 976.136719 1077.539062 969.394531 1075.851562 942.460938 C 1074.585938 922.246094 1071.800781 905.4375 1061.542969 894.464844 C 1058.121094 890.8125 1051.433594 886.886719 1047.222656 880.15625 C 1048.902344 856.582031 1038.804688 834.6875 1028.695312 819.535156 C 1018.589844 804.371094 1023.644531 755.546875 1023.644531 747.125 C 1023.644531 738.699219 1045.734375 742.003906 1072.484375 731.964844 C 1085.960938 726.910156 1093.550781 714.914062 1107.847656 701.652344 C 1124.292969 686.398438 1136.667969 662.804688 1146.582031 664.609375 C 1158.101562 666.703125 1185.328125 661.078125 1186.988281 645.242188 C 1187.996094 635.636719 1172.96875 623.050781 1158.359375 603.988281 C 1170.144531 592.203125 1175.207031 556.835938 1176.886719 524.847656 C 1178.566406 492.847656 1193.726562 406.964844 1197.09375 400.234375 C 1200.460938 393.5 1227.410156 368.246094 1239.1875 371.613281 C 1250.972656 374.972656 1225.71875 349.71875 1171.832031 356.460938 C 1139.839844 341.300781 1013.535156 268.882812 890.613281 267.203125 C 867.039062 243.628906 806.425781 213.316406 737.378906 213.316406 C 739.058594 236.890625 745.792969 263.828125 739.058594 275.617188 Z M 739.058594 275.617188 "/>
</clipPath>
<clipPath id="clip5">
  <path d="M 993 268 L 1046 268 L 1046 340 L 993 340 Z M 993 268 "/>
</clipPath>
<clipPath id="clip6">
  <path d="M 739.058594 275.617188 C 739.058594 275.617188 536.988281 460.011719 627.921875 601.457031 C 600.140625 646.925781 446.058594 907.09375 627.921875 967.714844 C 809.785156 1028.335938 882.195312 969.394531 892.292969 967.714844 C 931.027344 967.714844 988.285156 952.5625 1003.4375 952.5625 C 1018.589844 952.5625 1028.699219 962.667969 1037.117188 969.402344 C 1045.539062 976.136719 1077.539062 969.394531 1075.851562 942.460938 C 1074.585938 922.246094 1071.800781 905.4375 1061.542969 894.464844 C 1058.121094 890.8125 1051.433594 886.886719 1047.222656 880.15625 C 1048.902344 856.582031 1038.804688 834.6875 1028.695312 819.535156 C 1018.589844 804.371094 1023.644531 755.546875 1023.644531 747.125 C 1023.644531 738.699219 1045.734375 742.003906 1072.484375 731.964844 C 1085.960938 726.910156 1093.550781 714.914062 1107.847656 701.652344 C 1124.292969 686.398438 1136.667969 662.804688 1146.582031 664.609375 C 1158.101562 666.703125 1185.328125 661.078125 1186.988281 645.242188 C 1187.996094 635.636719 1172.96875 623.050781 1158.359375 603.988281 C 1170.144531 592.203125 1175.207031 556.835938 1176.886719 524.847656 C 1178.566406 492.847656 1193.726562 406.964844 1197.09375 400.234375 C 1200.460938 393.5 1227.410156 368.246094 1239.1875 371.613281 C 1250.972656 374.972656 1225.71875 349.71875 1171.832031 356.460938 C 1139.839844 341.300781 1013.535156 268.882812 890.613281 267.203125 C 867.039062 243.628906 806.425781 213.316406 737.378906 213.316406 C 739.058594 236.890625 745.792969 263.828125 739.058594 275.617188 Z M 739.058594 275.617188 "/>
</clipPath>
<clipPath id="clip7">
  <path d="M 737 213 L 898 213 L 898 253 L 737 253 Z M 737 213 "/>
</clipPath>
<clipPath id="clip8">
  <path d="M 739.058594 275.617188 C 739.058594 275.617188 536.988281 460.011719 627.921875 601.457031 C 600.140625 646.925781 446.058594 907.09375 627.921875 967.714844 C 809.785156 1028.335938 882.195312 969.394531 892.292969 967.714844 C 931.027344 967.714844 988.285156 952.5625 1003.4375 952.5625 C 1018.589844 952.5625 1028.699219 962.667969 1037.117188 969.402344 C 1045.539062 976.136719 1077.539062 969.394531 1075.851562 942.460938 C 1074.585938 922.246094 1071.800781 905.4375 1061.542969 894.464844 C 1058.121094 890.8125 1051.433594 886.886719 1047.222656 880.15625 C 1048.902344 856.582031 1038.804688 834.6875 1028.695312 819.535156 C 1018.589844 804.371094 1023.644531 755.546875 1023.644531 747.125 C 1023.644531 738.699219 1045.734375 742.003906 1072.484375 731.964844 C 1085.960938 726.910156 1093.550781 714.914062 1107.847656 701.652344 C 1124.292969 686.398438 1136.667969 662.804688 1146.582031 664.609375 C 1158.101562 666.703125 1185.328125 661.078125 1186.988281 645.242188 C 1187.996094 635.636719 1172.96875 623.050781 1158.359375 603.988281 C 1170.144531 592.203125 1175.207031 556.835938 1176.886719 524.847656 C 1178.566406 492.847656 1193.726562 406.964844 1197.09375 400.234375 C 1200.460938 393.5 1227.410156 368.246094 1239.1875 371.613281 C 1250.972656 374.972656 1225.71875 349.71875 1171.832031 356.460938 C 1139.839844 341.300781 1013.535156 268.882812 890.613281 267.203125 C 867.039062 243.628906 806.425781 213.316406 737.378906 213.316406 C 739.058594 236.890625 745.792969 263.828125 739.058594 275.617188 Z M 739.058594 275.617188 "/>
</clipPath>
<clipPath id="clip9">
  <path d="M 1171 316 L 1243 316 L 1243 372 L 1171 372 Z M 1171 316 "/>
</clipPath>
<clipPath id="clip10">
  <path d="M 739.058594 275.617188 C 739.058594 275.617188 536.988281 460.011719 627.921875 601.457031 C 600.140625 646.925781 446.058594 907.09375 627.921875 967.714844 C 809.785156 1028.335938 882.195312 969.394531 892.292969 967.714844 C 931.027344 967.714844 988.285156 952.5625 1003.4375 952.5625 C 1018.589844 952.5625 1028.699219 962.667969 1037.117188 969.402344 C 1045.539062 976.136719 1077.539062 969.394531 1075.851562 942.460938 C 1074.585938 922.246094 1071.800781 905.4375 1061.542969 894.464844 C 1058.121094 890.8125 1051.433594 886.886719 1047.222656 880.15625 C 1048.902344 856.582031 1038.804688 834.6875 1028.695312 819.535156 C 1018.589844 804.371094 1023.644531 755.546875 1023.644531 747.125 C 1023.644531 738.699219 1045.734375 742.003906 1072.484375 731.964844 C 1085.960938 726.910156 1093.550781 714.914062 1107.847656 701.652344 C 1124.292969 686.398438 1136.667969 662.804688 1146.582031 664.609375 C 1158.101562 666.703125 1185.328125 661.078125 1186.988281 645.242188 C 1187.996094 635.636719 1172.96875 623.050781 1158.359375 603.988281 C 1170.144531 592.203125 1175.207031 556.835938 1176.886719 524.847656 C 1178.566406 492.847656 1193.726562 406.964844 1197.09375 400.234375 C 1200.460938 393.5 1227.410156 368.246094 1239.1875 371.613281 C 1250.972656 374.972656 1225.71875 349.71875 1171.832031 356.460938 C 1139.839844 341.300781 1013.535156 268.882812 890.613281 267.203125 C 867.039062 243.628906 806.425781 213.316406 737.378906 213.316406 C 739.058594 236.890625 745.792969 263.828125 739.058594 275.617188 Z M 739.058594 275.617188 "/>
</clipPath>
<clipPath id="clip11">
  <path d="M 1049 278 L 1117 278 L 1117 388 L 1049 388 Z M 1049 278 "/>
</clipPath>
<clipPath id="clip12">
  <path d="M 739.066406 275.625 C 739.066406 275.625 536.996094 460.015625 627.921875 601.464844 C 600.140625 646.933594 446.058594 907.101562 627.921875 967.722656 C 809.792969 1028.34375 882.203125 969.402344 892.300781 967.722656 C 931.035156 967.722656 988.289062 952.5625 1003.445312 952.5625 C 1018.597656 952.5625 1028.695312 962.671875 1037.117188 969.410156 C 1045.542969 976.144531 1077.539062 969.402344 1075.851562 942.460938 C 1074.59375 922.253906 1071.800781 905.4375 1061.542969 894.472656 C 1058.121094 890.820312 1051.433594 886.894531 1047.222656 880.160156 C 1048.902344 856.582031 1038.804688 834.695312 1028.695312 819.539062 C 1018.597656 804.378906 1023.652344 755.554688 1023.652344 747.132812 C 1023.652344 738.707031 1045.738281 742.003906 1072.484375 731.964844 C 1085.957031 726.910156 1093.558594 714.921875 1107.851562 701.660156 C 1124.300781 686.398438 1136.667969 662.804688 1146.578125 664.609375 C 1158.109375 666.710938 1185.335938 661.085938 1186.992188 645.242188 C 1187.996094 635.644531 1172.976562 623.050781 1158.367188 603.988281 C 1170.152344 592.203125 1175.207031 556.84375 1176.894531 524.847656 C 1178.574219 492.855469 1193.734375 406.972656 1197.101562 400.242188 C 1200.460938 393.507812 1227.40625 368.246094 1239.195312 371.613281 C 1250.980469 374.980469 1225.71875 349.726562 1171.839844 356.460938 C 1139.839844 341.296875 1013.542969 268.890625 890.621094 267.210938 C 867.039062 243.628906 806.425781 213.324219 737.386719 213.324219 C 739.066406 236.898438 745.800781 263.835938 739.066406 275.625 Z M 739.066406 275.625 "/>
</clipPath>
<clipPath id="clip13">
  <path d="M 1121 322 L 1152 322 L 1152 369 L 1121 369 Z M 1121 322 "/>
</clipPath>
<clipPath id="clip14">
  <path d="M 739.066406 275.625 C 739.066406 275.625 536.996094 460.015625 627.921875 601.464844 C 600.140625 646.933594 446.058594 907.101562 627.921875 967.722656 C 809.792969 1028.34375 882.203125 969.402344 892.300781 967.722656 C 931.035156 967.722656 988.289062 952.5625 1003.445312 952.5625 C 1018.597656 952.5625 1028.695312 962.671875 1037.117188 969.410156 C 1045.542969 976.144531 1077.539062 969.402344 1075.851562 942.460938 C 1074.59375 922.253906 1071.800781 905.4375 1061.542969 894.472656 C 1058.121094 890.820312 1051.433594 886.894531 1047.222656 880.160156 C 1048.902344 856.582031 1038.804688 834.695312 1028.695312 819.539062 C 1018.597656 804.378906 1023.652344 755.554688 1023.652344 747.132812 C 1023.652344 738.707031 1045.738281 742.003906 1072.484375 731.964844 C 1085.957031 726.910156 1093.558594 714.921875 1107.851562 701.660156 C 1124.300781 686.398438 1136.667969 662.804688 1146.578125 664.609375 C 1158.109375 666.710938 1185.335938 661.085938 1186.992188 645.242188 C 1187.996094 635.644531 1172.976562 623.050781 1158.367188 603.988281 C 1170.152344 592.203125 1175.207031 556.84375 1176.894531 524.847656 C 1178.574219 492.855469 1193.734375 406.972656 1197.101562 400.242188 C 1200.460938 393.507812 1227.40625 368.246094 1239.195312 371.613281 C 1250.980469 374.980469 1225.71875 349.726562 1171.839844 356.460938 C 1139.839844 341.296875 1013.542969 268.890625 890.621094 267.210938 C 867.039062 243.628906 806.425781 213.324219 737.386719 213.324219 C 739.066406 236.898438 745.800781 263.835938 739.066406 275.625 Z M 739.066406 275.625 "/>
</clipPath>
<clipPath id="clip15">
  <path d="M 993 268 L 1046 268 L 1046 340 L 993 340 Z M 993 268 "/>
</clipPath>
<clipPath id="clip16">
  <path d="M 739.066406 275.625 C 739.066406 275.625 536.996094 460.015625 627.921875 601.464844 C 600.140625 646.933594 446.058594 907.101562 627.921875 967.722656 C 809.792969 1028.34375 882.203125 969.402344 892.300781 967.722656 C 931.035156 967.722656 988.289062 952.5625 1003.445312 952.5625 C 1018.597656 952.5625 1028.695312 962.671875 1037.117188 969.410156 C 1045.542969 976.144531 1077.539062 969.402344 1075.851562 942.460938 C 1074.59375 922.253906 1071.800781 905.4375 1061.542969 894.472656 C 1058.121094 890.820312 1051.433594 886.894531 1047.222656 880.160156 C 1048.902344 856.582031 1038.804688 834.695312 1028.695312 819.539062 C 1018.597656 804.378906 1023.652344 755.554688 1023.652344 747.132812 C 1023.652344 738.707031 1045.738281 742.003906 1072.484375 731.964844 C 1085.957031 726.910156 1093.558594 714.921875 1107.851562 701.660156 C 1124.300781 686.398438 1136.667969 662.804688 1146.578125 664.609375 C 1158.109375 666.710938 1185.335938 661.085938 1186.992188 645.242188 C 1187.996094 635.644531 1172.976562 623.050781 1158.367188 603.988281 C 1170.152344 592.203125 1175.207031 556.84375 1176.894531 524.847656 C 1178.574219 492.855469 1193.734375 406.972656 1197.101562 400.242188 C 1200.460938 393.507812 1227.40625 368.246094 1239.195312 371.613281 C 1250.980469 374.980469 1225.71875 349.726562 1171.839844 356.460938 C 1139.839844 341.296875 1013.542969 268.890625 890.621094 267.210938 C 867.039062 243.628906 806.425781 213.324219 737.386719 213.324219 C 739.066406 236.898438 745.800781 263.835938 739.066406 275.625 Z M 739.066406 275.625 "/>
</clipPath>
<clipPath id="clip17">
  <path d="M 1171 316 L 1243 316 L 1243 372 L 1171 372 Z M 1171 316 "/>
</clipPath>
<clipPath id="clip18">
  <path d="M 739.066406 275.625 C 739.066406 275.625 536.996094 460.015625 627.921875 601.464844 C 600.140625 646.933594 446.058594 907.101562 627.921875 967.722656 C 809.792969 1028.34375 882.203125 969.402344 892.300781 967.722656 C 931.035156 967.722656 988.289062 952.5625 1003.445312 952.5625 C 1018.597656 952.5625 1028.695312 962.671875 1037.117188 969.410156 C 1045.542969 976.144531 1077.539062 969.402344 1075.851562 942.460938 C 1074.59375 922.253906 1071.800781 905.4375 1061.542969 894.472656 C 1058.121094 890.820312 1051.433594 886.894531 1047.222656 880.160156 C 1048.902344 856.582031 1038.804688 834.695312 1028.695312 819.539062 C 1018.597656 804.378906 1023.652344 755.554688 1023.652344 747.132812 C 1023.652344 738.707031 1045.738281 742.003906 1072.484375 731.964844 C 1085.957031 726.910156 1093.558594 714.921875 1107.851562 701.660156 C 1124.300781 686.398438 1136.667969 662.804688 1146.578125 664.609375 C 1158.109375 666.710938 1185.335938 661.085938 1186.992188 645.242188 C 1187.996094 635.644531 1172.976562 623.050781 1158.367188 603.988281 C 1170.152344 592.203125 1175.207031 556.84375 1176.894531 524.847656 C 1178.574219 492.855469 1193.734375 406.972656 1197.101562 400.242188 C 1200.460938 393.507812 1227.40625 368.246094 1239.195312 371.613281 C 1250.980469 374.980469 1225.71875 349.726562 1171.839844 356.460938 C 1139.839844 341.296875 1013.542969 268.890625 890.621094 267.210938 C 867.039062 243.628906 806.425781 213.324219 737.386719 213.324219 C 739.066406 236.898438 745.800781 263.835938 739.066406 275.625 Z M 739.066406 275.625 "/>
</clipPath>
<clipPath id="clip19">
  <path d="M 723 833 L 878 833 L 878 1004 L 723 1004 Z M 723 833 "/>
</clipPath>
<clipPath id="clip20">
  <path d="M 544.566406 816.902344 C 544.566406 816.902344 608.558594 943.199219 817.363281 874.148438 C 861.144531 870.785156 920.078125 907.839844 892.292969 961.726562 C 864.519531 1015.605469 638.867188 1025.699219 558.039062 941.511719 C 541.199219 917.9375 527.730469 857.316406 544.566406 816.902344 Z M 544.566406 816.902344 "/>
</clipPath>
<clipPath id="clip21">
  <path d="M 673 839 L 766 839 L 766 1004 L 673 1004 Z M 673 839 "/>
</clipPath>
<clipPath id="clip22">
  <path d="M 544.566406 816.902344 C 544.566406 816.902344 608.558594 943.199219 817.363281 874.148438 C 861.144531 870.785156 920.078125 907.839844 892.292969 961.726562 C 864.519531 1015.605469 638.867188 1025.699219 558.039062 941.511719 C 541.199219 917.9375 527.730469 857.316406 544.566406 816.902344 Z M 544.566406 816.902344 "/>
</clipPath>
</defs>
<g id="surface1">
<path style=" stroke:none;fill-rule:nonzero;fill:rgb(17.647059%,52.156866%,77.64706%);fill-opacity:1;" d="M 1202.253906 1012.933594 L 1231.289062 991.535156 L 1206.289062 963.179688 C 1206.289062 963.179688 1175.765625 950.28125 1173.921875 955.6875 C 1172.058594 961.078125 1166.488281 980.878906 1166.488281 980.878906 Z M 1202.253906 1012.933594 "/>
<path style=" stroke:none;fill-rule:nonzero;fill:rgb(17.647059%,52.156866%,77.64706%);fill-opacity:1;" d="M 1411.230469 1023.695312 L 1440.234375 1002.277344 L 1415.273438 973.921875 C 1415.273438 973.921875 1384.75 961.050781 1382.898438 966.425781 C 1381.058594 971.835938 1375.480469 991.636719 1375.480469 991.636719 Z M 1411.230469 1023.695312 "/>
<path style=" stroke:none;fill-rule:nonzero;fill:rgb(17.647059%,52.156866%,77.64706%);fill-opacity:1;" d="M 1082.105469 676.621094 L 1111.132812 655.210938 L 1137.046875 672.425781 L 1135.050781 695.867188 L 1113.34375 704.632812 Z M 1082.105469 676.621094 "/>
<path style=" stroke:none;fill-rule:nonzero;fill:rgb(17.647059%,52.156866%,77.64706%);fill-opacity:1;" d="M 1318.789062 673.171875 L 1347.816406 651.820312 L 1373.722656 668.984375 L 1371.734375 692.410156 L 1350.015625 701.199219 Z M 1318.789062 673.171875 "/>
<path style=" stroke:none;fill-rule:nonzero;fill:rgb(17.647059%,52.156866%,77.64706%);fill-opacity:1;" d="M 1148.253906 993.960938 L 1111.09375 655.488281 L 1255.585938 653.574219 L 1347.941406 885.953125 L 1347.835938 651.277344 L 1489.273438 649.328125 L 1440.234375 1002.503906 L 1319.292969 1004.566406 L 1229.796875 797.84375 L 1231.289062 991.535156 Z M 1148.253906 993.960938 "/>
<path style=" stroke:none;fill-rule:nonzero;fill:rgb(50.588238%,81.960785%,95.686275%);fill-opacity:1;" d="M 1119.242188 1015.320312 L 1082.066406 676.839844 L 1226.609375 674.972656 L 1318.933594 907.371094 L 1318.828125 672.675781 L 1460.261719 670.734375 L 1411.230469 1023.90625 L 1290.296875 1025.972656 L 1200.808594 819.238281 L 1202.253906 1012.933594 Z M 1119.242188 1015.320312 "/>
<path style=" stroke:none;fill-rule:nonzero;fill:rgb(17.647059%,52.156866%,77.64706%);fill-opacity:1;" d="M 1643.164062 646.796875 C 1643.164062 646.796875 1538.332031 645.726562 1516.777344 728.824219 C 1495.191406 811.910156 1485.621094 1004.589844 1637.234375 1005.570312 C 1788.859375 1006.5625 1785.570312 853.238281 1781.523438 822.546875 C 1777.519531 791.855469 1779.898438 654.871094 1643.164062 646.796875 Z M 1643.164062 646.796875 "/>
<path style=" stroke:none;fill-rule:nonzero;fill:rgb(50.588238%,81.960785%,95.686275%);fill-opacity:1;" d="M 1626.285156 665.078125 C 1626.285156 665.078125 1519.660156 663.933594 1497.933594 746.964844 C 1476.226562 830.007812 1466.277344 1022.65625 1617.894531 1023.960938 C 1769.503906 1025.261719 1766.535156 871.921875 1762.550781 841.238281 C 1758.597656 810.554688 1756.398438 673.082031 1626.285156 665.078125 Z M 1626.285156 665.078125 "/>
<path style=" stroke:none;fill-rule:nonzero;fill:rgb(17.647059%,52.156866%,77.64706%);fill-opacity:1;" d="M 1269.066406 1207.734375 C 1269.066406 1207.734375 1225.378906 1206.789062 1215.992188 1239.980469 C 1206.609375 1273.175781 1201.703125 1350.339844 1264.878906 1351.476562 C 1328.066406 1352.636719 1327.433594 1291.164062 1325.890625 1278.855469 C 1324.378906 1266.535156 1326.011719 1211.644531 1269.066406 1207.734375 Z M 1269.066406 1207.734375 "/>
<path style=" stroke:none;fill-rule:nonzero;fill:rgb(50.588238%,81.960785%,95.686275%);fill-opacity:1;" d="M 1262.023438 1215.984375 C 1262.023438 1215.984375 1217.597656 1214.996094 1208.152344 1248.164062 C 1198.707031 1281.34375 1193.632812 1358.496094 1256.8125 1359.757812 C 1320.003906 1361.039062 1319.484375 1299.574219 1317.976562 1287.253906 C 1316.46875 1274.941406 1316.214844 1219.839844 1262.023438 1215.984375 Z M 1262.023438 1215.984375 "/>
<path style=" stroke:none;fill-rule:nonzero;fill:rgb(17.647059%,52.156866%,77.64706%);fill-opacity:1;" d="M 1529.816406 1357.109375 L 1541.84375 1348.078125 L 1531.320312 1336.351562 C 1531.320312 1336.351562 1518.554688 1331.085938 1517.800781 1333.339844 C 1517.050781 1335.605469 1514.789062 1343.875 1514.789062 1343.875 Z M 1529.816406 1357.109375 "/>
<path style=" stroke:none;fill-rule:nonzero;fill:rgb(17.647059%,52.156866%,77.64706%);fill-opacity:1;" d="M 1616.945312 1360.867188 L 1628.964844 1351.851562 L 1618.460938 1340.117188 C 1618.460938 1340.117188 1605.695312 1334.851562 1604.941406 1337.105469 C 1604.195312 1339.355469 1601.9375 1347.617188 1601.9375 1347.617188 Z M 1616.945312 1360.867188 "/>
<path style=" stroke:none;fill-rule:nonzero;fill:rgb(17.647059%,52.156866%,77.64706%);fill-opacity:1;" d="M 1478.570312 1217.347656 L 1490.597656 1208.324219 L 1501.449219 1215.410156 L 1500.703125 1225.195312 L 1491.691406 1228.929688 Z M 1478.570312 1217.347656 "/>
<path style=" stroke:none;fill-rule:nonzero;fill:rgb(17.647059%,52.156866%,77.64706%);fill-opacity:1;" d="M 1577.210938 1215.101562 L 1589.230469 1206.09375 L 1600.082031 1213.160156 L 1599.335938 1222.925781 L 1590.3125 1226.671875 Z M 1577.210938 1215.101562 "/>
<path style=" stroke:none;fill-rule:nonzero;fill:rgb(17.647059%,52.156866%,77.64706%);fill-opacity:1;" d="M 1507.234375 1349.386719 L 1490.582031 1208.445312 L 1550.796875 1207.140625 L 1590.097656 1303.679688 L 1589.238281 1205.867188 L 1648.179688 1204.566406 L 1628.964844 1351.941406 L 1578.558594 1353.207031 L 1540.546875 1267.355469 L 1541.84375 1348.078125 Z M 1507.234375 1349.386719 "/>
<path style=" stroke:none;fill-rule:nonzero;fill:rgb(50.588238%,81.960785%,95.686275%);fill-opacity:1;" d="M 1495.222656 1358.382812 L 1478.554688 1217.445312 L 1538.785156 1216.164062 L 1578.070312 1312.695312 L 1577.21875 1214.890625 L 1636.160156 1213.597656 L 1616.945312 1360.964844 L 1566.554688 1362.238281 L 1528.542969 1276.378906 L 1529.8125 1357.109375 Z M 1495.222656 1358.382812 "/>
<path style=" stroke:none;fill-rule:nonzero;fill:rgb(17.647059%,52.156866%,77.64706%);fill-opacity:1;" d="M 1187.054688 1258.167969 L 1197.269531 1250.808594 L 1189.820312 1244.121094 L 1181.476562 1244.480469 L 1179.660156 1249.566406 Z M 1187.054688 1258.167969 "/>
<path style=" stroke:none;fill-rule:nonzero;fill:rgb(17.647059%,52.156866%,77.64706%);fill-opacity:1;" d="M 1176.902344 1315.496094 L 1187.117188 1308.132812 L 1179.660156 1301.445312 L 1171.324219 1301.828125 L 1169.507812 1306.902344 Z M 1176.902344 1315.496094 "/>
<path style=" stroke:none;fill-rule:nonzero;fill:rgb(17.647059%,52.156866%,77.64706%);fill-opacity:1;" d="M 1113.757812 1375.011719 L 1123.980469 1367.660156 L 1116.523438 1360.964844 L 1108.1875 1361.324219 L 1106.363281 1366.410156 Z M 1113.757812 1375.011719 "/>
<path style=" stroke:none;fill-rule:nonzero;fill:rgb(17.647059%,52.156866%,77.64706%);fill-opacity:1;" d="M 1086.195312 1217.996094 L 1096.40625 1210.628906 L 1105.8125 1220.34375 L 1099.289062 1226.339844 L 1091.125 1223.0625 Z M 1086.195312 1217.996094 "/>
<path style=" stroke:none;fill-rule:nonzero;fill:rgb(17.647059%,52.156866%,77.64706%);fill-opacity:1;" d="M 1093.054688 1370.09375 L 1096.40625 1210.628906 L 1200.199219 1207.277344 L 1197.269531 1250.808594 L 1126.539062 1250.808594 L 1126.539062 1270.886719 L 1186.8125 1270.886719 L 1186.8125 1307.730469 L 1126.539062 1311.074219 L 1124.445312 1367.578125 Z M 1093.054688 1370.09375 "/>
<path style=" stroke:none;fill-rule:nonzero;fill:rgb(50.588238%,81.960785%,95.686275%);fill-opacity:1;" d="M 1082.84375 1377.464844 L 1086.195312 1217.996094 L 1189.992188 1214.652344 L 1187.054688 1258.167969 L 1116.328125 1258.167969 L 1116.328125 1278.261719 L 1176.59375 1278.261719 L 1176.59375 1315.097656 L 1116.328125 1318.441406 L 1114.234375 1374.949219 Z M 1082.84375 1377.464844 "/>
<path style=" stroke:none;fill-rule:nonzero;fill:rgb(17.647059%,52.156866%,77.64706%);fill-opacity:1;" d="M 1341.738281 1214.453125 L 1351.941406 1207.089844 L 1361.359375 1216.820312 L 1354.835938 1222.792969 L 1346.664062 1219.539062 Z M 1341.738281 1214.453125 "/>
<path style=" stroke:none;fill-rule:nonzero;fill:rgb(17.647059%,52.156866%,77.64706%);fill-opacity:1;" d="M 1431.007812 1218.265625 L 1441.214844 1210.898438 L 1450.621094 1220.621094 L 1444.089844 1226.609375 L 1435.925781 1223.34375 Z M 1431.007812 1218.265625 "/>
<path style=" stroke:none;fill-rule:nonzero;fill:rgb(17.647059%,52.156866%,77.64706%);fill-opacity:1;" d="M 1351.84375 1207.019531 C 1351.84375 1207.019531 1337.152344 1352.671875 1405.695312 1353.90625 C 1474.253906 1355.144531 1470.578125 1222.925781 1464.464844 1210.6875 C 1441.199219 1210.6875 1441.199219 1210.6875 1441.199219 1210.6875 C 1441.199219 1210.6875 1438.75 1333.097656 1402.019531 1309.832031 C 1365.304688 1286.589844 1386.113281 1214.371094 1384.894531 1209.46875 C 1373.867188 1209.46875 1351.84375 1207.019531 1351.84375 1207.019531 Z M 1351.84375 1207.019531 "/>
<path style=" stroke:none;fill-rule:nonzero;fill:rgb(50.588238%,81.960785%,95.686275%);fill-opacity:1;" d="M 1341.632812 1214.492188 C 1341.632812 1214.492188 1326.953125 1360.160156 1395.503906 1361.402344 C 1464.050781 1362.613281 1460.382812 1230.40625 1454.265625 1218.167969 C 1431 1218.167969 1431 1218.167969 1431 1218.167969 C 1431 1218.167969 1428.554688 1340.578125 1391.828125 1317.320312 C 1355.105469 1294.0625 1375.90625 1221.84375 1374.6875 1216.949219 C 1363.671875 1216.949219 1341.632812 1214.492188 1341.632812 1214.492188 Z M 1341.632812 1214.492188 "/>
<path style=" stroke:none;fill-rule:nonzero;fill:rgb(17.647059%,52.156866%,77.64706%);fill-opacity:1;" d="M 1668.363281 1206.46875 L 1678.570312 1199.105469 L 1687.976562 1208.828125 L 1681.453125 1214.824219 L 1673.28125 1211.554688 Z M 1668.363281 1206.46875 "/>
<path style=" stroke:none;fill-rule:nonzero;fill:rgb(17.647059%,52.156866%,77.64706%);fill-opacity:1;" d="M 1678.253906 1199.261719 L 1683.53125 1348.199219 C 1683.53125 1348.199219 1770.53125 1340.304688 1769.210938 1292.84375 C 1767.882812 1245.386719 1762.613281 1191.355469 1678.253906 1199.261719 Z M 1678.253906 1199.261719 "/>
<path style=" stroke:none;fill-rule:nonzero;fill:rgb(50.588238%,81.960785%,95.686275%);fill-opacity:1;" d="M 1668.21875 1206.9375 L 1673.476562 1355.882812 C 1673.476562 1355.882812 1760.472656 1347.980469 1759.15625 1300.523438 C 1757.835938 1253.0625 1752.574219 1199.03125 1668.21875 1206.9375 Z M 1668.21875 1206.9375 "/>
<path style=" stroke:none;fill-rule:nonzero;fill:rgb(17.647059%,52.156866%,77.64706%);fill-opacity:1;" d="M 1452.074219 1170.597656 L 1462.714844 1162.601562 L 1453.40625 1152.199219 C 1453.40625 1152.199219 1442.078125 1147.539062 1441.410156 1149.53125 C 1440.746094 1151.527344 1438.734375 1158.855469 1438.734375 1158.855469 Z M 1452.074219 1170.597656 "/>
<path style=" stroke:none;fill-rule:nonzero;fill:rgb(17.647059%,52.156866%,77.64706%);fill-opacity:1;" d="M 1523.367188 1162.707031 L 1534.015625 1154.707031 L 1524.722656 1144.304688 C 1524.722656 1144.304688 1513.386719 1139.644531 1512.726562 1141.617188 C 1512.054688 1143.621094 1510.058594 1150.949219 1510.058594 1150.949219 Z M 1523.367188 1162.707031 "/>
<path style=" stroke:none;fill-rule:nonzero;fill:rgb(17.647059%,52.156866%,77.64706%);fill-opacity:1;" d="M 1422.316406 1051.292969 L 1432.953125 1043.308594 L 1442.59375 1049.566406 L 1441.921875 1058.234375 L 1433.945312 1061.574219 Z M 1422.316406 1051.292969 "/>
<path style=" stroke:none;fill-rule:nonzero;fill:rgb(17.647059%,52.156866%,77.64706%);fill-opacity:1;" d="M 1432.945312 1043.066406 L 1431.285156 1159.382812 L 1462.859375 1162.726562 L 1459.515625 1136.128906 C 1459.515625 1136.128906 1477.800781 1149.421875 1486.132812 1169.355469 C 1501.074219 1164.386719 1534.320312 1154.40625 1534.320312 1154.40625 C 1534.320312 1154.40625 1522.691406 1126.148438 1484.445312 1102.890625 C 1502.730469 1104.539062 1529.332031 1096.234375 1527.660156 1074.640625 C 1526.011719 1053.023438 1514.359375 1021.453125 1432.945312 1043.066406 Z M 1432.945312 1043.066406 "/>
<path style=" stroke:none;fill-rule:nonzero;fill:rgb(50.588238%,81.960785%,95.686275%);fill-opacity:1;" d="M 1422.28125 1051.035156 L 1420.621094 1167.398438 L 1452.210938 1170.703125 L 1448.871094 1144.117188 C 1448.871094 1144.117188 1467.160156 1157.417969 1475.460938 1177.355469 C 1490.410156 1172.367188 1523.652344 1162.382812 1523.652344 1162.382812 C 1523.652344 1162.382812 1512.015625 1134.148438 1473.800781 1110.867188 C 1492.082031 1112.53125 1518.667969 1104.238281 1517.003906 1082.636719 C 1515.355469 1061.023438 1503.71875 1029.457031 1422.28125 1051.035156 Z M 1422.28125 1051.035156 "/>
<path style=" stroke:none;fill-rule:nonzero;fill:rgb(17.647059%,52.156866%,77.64706%);fill-opacity:1;" d="M 1165.492188 1084.296875 L 1175.570312 1077.050781 L 1175.035156 1073.375 L 1167.097656 1067.183594 C 1167.097656 1067.183594 1156.644531 1062.640625 1155.980469 1064.496094 C 1155.324219 1066.332031 1153.328125 1073.117188 1153.328125 1073.117188 L 1164.476562 1079.8125 Z M 1165.492188 1084.296875 "/>
<path style=" stroke:none;fill-rule:nonzero;fill:rgb(17.647059%,52.156866%,77.64706%);fill-opacity:1;" d="M 1117.359375 1046.140625 L 1127.40625 1038.910156 L 1136.257812 1044.921875 L 1135.472656 1052.980469 L 1127.972656 1055.925781 Z M 1117.359375 1046.140625 "/>
<path style=" stroke:none;fill-rule:nonzero;fill:rgb(17.647059%,52.156866%,77.64706%);fill-opacity:1;" d="M 1107.117188 1144.839844 L 1117.171875 1137.59375 L 1126.019531 1143.621094 L 1125.238281 1151.679688 L 1117.734375 1154.625 Z M 1107.117188 1144.839844 "/>
<path style=" stroke:none;fill-rule:nonzero;fill:rgb(17.647059%,52.156866%,77.64706%);fill-opacity:1;" d="M 1175.511719 1077.417969 L 1186.6875 1048.03125 C 1186.6875 1048.03125 1127.074219 1015.097656 1116.765625 1054.027344 C 1106.46875 1092.941406 1134.199219 1099.246094 1150.332031 1120.273438 C 1154.453125 1125.636719 1153.023438 1143.582031 1117.199219 1137.582031 C 1117.8125 1159.796875 1117.707031 1165.078125 1117.707031 1165.078125 C 1117.707031 1165.078125 1165.140625 1172.390625 1180.328125 1153.652344 C 1195.507812 1134.921875 1185.429688 1110.390625 1166.660156 1097.316406 C 1134.371094 1074.851562 1170.554688 1061.445312 1175.511719 1077.417969 Z M 1175.511719 1077.417969 "/>
<path style=" stroke:none;fill-rule:nonzero;fill:rgb(50.588238%,81.960785%,95.686275%);fill-opacity:1;" d="M 1165.457031 1084.664062 L 1176.609375 1055.269531 C 1176.609375 1055.269531 1117.007812 1022.347656 1106.71875 1061.25 C 1096.40625 1100.171875 1124.121094 1106.488281 1140.277344 1127.496094 C 1144.398438 1132.859375 1142.972656 1150.828125 1107.132812 1144.808594 C 1107.75 1167.019531 1107.636719 1172.324219 1107.636719 1172.324219 C 1107.636719 1172.324219 1155.085938 1179.613281 1170.269531 1160.890625 C 1185.4375 1142.152344 1175.351562 1117.636719 1156.59375 1104.554688 C 1124.3125 1082.082031 1160.484375 1068.691406 1165.457031 1084.664062 Z M 1165.457031 1084.664062 "/>
<path style=" stroke:none;fill-rule:nonzero;fill:rgb(17.647059%,52.156866%,77.64706%);fill-opacity:1;" d="M 1273.402344 1167.835938 L 1283.769531 1160.0625 L 1274.722656 1149.941406 C 1274.722656 1149.941406 1263.710938 1145.398438 1263.054688 1147.347656 C 1262.417969 1149.292969 1260.472656 1156.417969 1260.472656 1156.417969 Z M 1273.402344 1167.835938 "/>
<path style=" stroke:none;fill-rule:nonzero;fill:rgb(17.647059%,52.156866%,77.64706%);fill-opacity:1;" d="M 1269.933594 1118.269531 L 1280.289062 1110.519531 L 1271.234375 1100.40625 C 1271.234375 1100.40625 1260.21875 1095.871094 1259.570312 1097.820312 C 1258.921875 1099.734375 1256.976562 1106.867188 1256.976562 1106.867188 Z M 1269.933594 1118.269531 "/>
<path style=" stroke:none;fill-rule:nonzero;fill:rgb(17.647059%,52.156866%,77.64706%);fill-opacity:1;" d="M 1272.160156 1069.230469 L 1282.53125 1061.46875 L 1273.457031 1051.359375 C 1273.457031 1051.359375 1262.460938 1046.828125 1261.8125 1048.769531 C 1261.160156 1050.703125 1259.222656 1057.820312 1259.222656 1057.820312 Z M 1272.160156 1069.230469 "/>
<path style=" stroke:none;fill-rule:nonzero;fill:rgb(17.647059%,52.156866%,77.64706%);fill-opacity:1;" d="M 1207.125 1050.273438 L 1217.492188 1042.511719 L 1226.84375 1048.601562 L 1226.210938 1057.03125 L 1218.433594 1060.246094 Z M 1207.125 1050.273438 "/>
<path style=" stroke:none;fill-rule:nonzero;fill:rgb(17.647059%,52.156866%,77.64706%);fill-opacity:1;" d="M 1217.460938 1042.398438 L 1221.851562 1161.652344 L 1283.699219 1160.167969 L 1282.222656 1133.679688 L 1247.4375 1135.699219 L 1247.261719 1110.488281 L 1280.386719 1110.488281 L 1280.753906 1085.101562 L 1246.335938 1086.554688 L 1245.0625 1064.101562 L 1282.601562 1061.917969 L 1282.222656 1039.453125 Z M 1217.460938 1042.398438 "/>
<path style=" stroke:none;fill-rule:nonzero;fill:rgb(50.588238%,81.960785%,95.686275%);fill-opacity:1;" d="M 1207.089844 1050.15625 L 1211.511719 1169.417969 L 1273.359375 1167.933594 L 1271.867188 1141.445312 L 1237.09375 1143.476562 L 1236.914062 1118.261719 L 1270.039062 1118.261719 L 1270.390625 1092.859375 L 1235.988281 1094.335938 L 1234.699219 1071.867188 L 1272.230469 1069.667969 L 1271.867188 1047.203125 Z M 1207.089844 1050.15625 "/>
<path style=" stroke:none;fill-rule:nonzero;fill:rgb(17.647059%,52.156866%,77.64706%);fill-opacity:1;" d="M 1649.308594 1057.203125 C 1649.308594 1057.203125 1622.542969 1014.90625 1580.238281 1045.914062 C 1537.957031 1076.929688 1547.828125 1161.507812 1604.21875 1162.9375 C 1618.316406 1164.347656 1646.515625 1155.898438 1657.773438 1136.148438 C 1645.097656 1117.808594 1645.097656 1117.808594 1645.097656 1117.808594 C 1645.097656 1117.808594 1603.871094 1152.019531 1585.886719 1121.335938 C 1567.921875 1090.667969 1598.570312 1045.214844 1633.46875 1069.511719 C 1640.875 1064.238281 1649.308594 1057.203125 1649.308594 1057.203125 Z M 1649.308594 1057.203125 "/>
<path style=" stroke:none;fill-rule:nonzero;fill:rgb(50.588238%,81.960785%,95.686275%);fill-opacity:1;" d="M 1639.40625 1064.628906 C 1639.40625 1064.628906 1612.636719 1022.328125 1570.324219 1053.347656 C 1528.050781 1084.378906 1537.910156 1168.957031 1594.304688 1170.367188 C 1608.414062 1171.773438 1636.605469 1163.308594 1647.863281 1143.589844 C 1635.195312 1125.265625 1635.195312 1125.265625 1635.195312 1125.265625 C 1635.195312 1125.265625 1593.945312 1159.429688 1575.984375 1128.777344 C 1558.003906 1098.117188 1588.664062 1052.664062 1623.535156 1076.960938 C 1630.945312 1071.6875 1639.40625 1064.628906 1639.40625 1064.628906 Z M 1639.40625 1064.628906 "/>
<path style=" stroke:none;fill-rule:nonzero;fill:rgb(17.647059%,52.156866%,77.64706%);fill-opacity:1;" d="M 1315.609375 1174.5 L 1324.023438 1168.421875 L 1317.886719 1162.902344 L 1310.996094 1163.203125 L 1309.511719 1167.398438 Z M 1315.609375 1174.5 "/>
<path style=" stroke:none;fill-rule:nonzero;fill:rgb(17.647059%,52.156866%,77.64706%);fill-opacity:1;" d="M 1381.179688 1172.246094 L 1389.613281 1166.167969 L 1383.460938 1160.65625 L 1376.570312 1160.957031 L 1375.074219 1165.144531 Z M 1381.179688 1172.246094 "/>
<path style=" stroke:none;fill-rule:nonzero;fill:rgb(17.647059%,52.156866%,77.64706%);fill-opacity:1;" d="M 1324.484375 1047.933594 L 1332.917969 1041.847656 L 1340.667969 1049.875 L 1335.289062 1054.816406 L 1328.542969 1052.121094 Z M 1324.484375 1047.933594 "/>
<path style=" stroke:none;fill-rule:nonzero;fill:rgb(17.647059%,52.156866%,77.64706%);fill-opacity:1;" d="M 1302.695312 1168.203125 L 1333.03125 1041.824219 L 1357.492188 1041.824219 L 1389.773438 1166.167969 L 1367.277344 1166.167969 L 1358.472656 1139.660156 L 1333.03125 1139.660156 L 1324.21875 1168.203125 Z M 1302.695312 1168.203125 "/>
<path style=" stroke:none;fill-rule:nonzero;fill:rgb(50.588238%,81.960785%,95.686275%);fill-opacity:1;" d="M 1294.003906 1174.335938 L 1324.339844 1047.949219 L 1348.800781 1047.949219 L 1381.082031 1172.292969 L 1358.585938 1172.292969 L 1349.773438 1145.789062 L 1324.339844 1145.789062 L 1315.527344 1174.335938 Z M 1294.003906 1174.335938 "/>
<path style=" stroke:none;fill-rule:nonzero;fill:rgb(17.647059%,52.156866%,77.64706%);fill-opacity:1;" d="M 1690.695312 1031.566406 L 1690.695312 1163 L 1713.507812 1163 L 1713.507812 1109.132812 L 1747.234375 1108.0625 L 1748.226562 1159.769531 L 1768.066406 1159.769531 L 1773.03125 1032.644531 L 1750.207031 1033.722656 L 1747.234375 1087.585938 L 1714.496094 1089.734375 L 1713.507812 1031.566406 Z M 1690.695312 1031.566406 "/>
<path style=" stroke:none;fill-rule:nonzero;fill:rgb(17.647059%,52.156866%,77.64706%);fill-opacity:1;" d="M 1759.523438 1165.476562 L 1767.953125 1159.707031 L 1761.800781 1154.472656 L 1754.914062 1154.753906 L 1753.417969 1158.734375 Z M 1759.523438 1165.476562 "/>
<path style=" stroke:none;fill-rule:nonzero;fill:rgb(17.647059%,52.156866%,77.64706%);fill-opacity:1;" d="M 1705.027344 1168.617188 L 1713.460938 1162.847656 L 1707.308594 1157.597656 L 1700.425781 1157.878906 L 1698.925781 1161.871094 Z M 1705.027344 1168.617188 "/>
<path style=" stroke:none;fill-rule:nonzero;fill:rgb(17.647059%,52.156866%,77.64706%);fill-opacity:1;" d="M 1682.289062 1037.386719 L 1690.710938 1031.613281 L 1698.46875 1039.242188 L 1693.082031 1043.941406 L 1686.347656 1041.378906 Z M 1682.289062 1037.386719 "/>
<path style=" stroke:none;fill-rule:nonzero;fill:rgb(17.647059%,52.156866%,77.64706%);fill-opacity:1;" d="M 1741.570312 1039.527344 L 1750 1033.757812 L 1757.753906 1041.378906 L 1752.371094 1046.066406 L 1745.636719 1043.511719 Z M 1741.570312 1039.527344 "/>
<path style=" stroke:none;fill-rule:nonzero;fill:rgb(50.588238%,81.960785%,95.686275%);fill-opacity:1;" d="M 1682.152344 1037.253906 L 1682.152344 1168.691406 L 1704.964844 1168.691406 L 1704.964844 1114.828125 L 1738.707031 1113.757812 L 1739.695312 1165.460938 L 1759.523438 1165.460938 L 1764.496094 1038.332031 L 1741.683594 1039.40625 L 1738.707031 1093.28125 L 1705.960938 1095.433594 L 1704.964844 1037.253906 Z M 1682.152344 1037.253906 "/>
<path style=" stroke:none;fill-rule:nonzero;fill:rgb(50.588238%,81.960785%,95.686275%);fill-opacity:1;" d="M 1170.019531 526.054688 L 1180.117188 182.535156 L 1803.171875 209.480469 L 1776.230469 549.632812 Z M 1170.019531 526.054688 "/>
<path style=" stroke:none;fill-rule:nonzero;fill:rgb(79.215688%,91.764706%,96.078432%);fill-opacity:1;" d="M 1200.226562 506.878906 L 1209.21875 204.324219 L 1763.683594 228.054688 L 1739.710938 527.640625 Z M 1200.226562 506.878906 "/>
<path style=" stroke:none;fill-rule:nonzero;fill:rgb(2.745098%,44.313726%,60.000002%);fill-opacity:1;" d="M 1775.921875 549.632812 L 1775.921875 565.019531 L 1733.390625 570.148438 L 1754.863281 552.195312 Z M 1775.921875 549.632812 "/>
<path style=" stroke:none;fill-rule:nonzero;fill:rgb(2.745098%,44.313726%,60.000002%);fill-opacity:1;" d="M 1776.132812 565.105469 L 1580.78125 716.660156 L 1028.457031 689.71875 L 1169.914062 541.523438 Z M 1776.132812 565.105469 "/>
<path style=" stroke:none;fill-rule:nonzero;fill:rgb(17.647059%,52.156866%,77.64706%);fill-opacity:1;" d="M 1776.132812 549.535156 L 1580.78125 701.09375 L 1028.457031 674.152344 L 1169.914062 525.960938 Z M 1776.132812 549.535156 "/>
<path style=" stroke:none;fill-rule:nonzero;fill:rgb(17.647059%,52.156866%,77.64706%);fill-opacity:1;" d="M 586.050781 945.648438 C 586.050781 945.648438 535.527344 1041.636719 641.625 1061.835938 C 747.714844 1082.050781 914.421875 1061.835938 959.882812 1056.789062 C 1005.351562 1051.738281 1037.351562 1002.910156 1013.769531 933.867188 C 990.199219 864.820312 611.308594 877.449219 586.050781 945.648438 Z M 586.050781 945.648438 "/>
<path style=" stroke:none;fill-rule:nonzero;fill:rgb(43.921569%,76.862746%,93.333334%);fill-opacity:1;" d="M 1017.980469 943.675781 C 1017.980469 976.367188 923.542969 1002.863281 807.070312 1002.863281 C 690.585938 1002.863281 596.15625 976.367188 596.15625 943.675781 C 596.15625 910.980469 690.585938 884.484375 807.070312 884.484375 C 923.542969 884.484375 1017.980469 910.980469 1017.980469 943.675781 Z M 1017.980469 943.675781 "/>
<path style=" stroke:none;fill-rule:nonzero;fill:rgb(17.647059%,52.156866%,77.64706%);fill-opacity:1;" d="M 919.46875 1339.6875 C 919.46875 1359.226562 867.449219 1375.050781 803.28125 1375.050781 C 739.105469 1375.050781 687.085938 1359.226562 687.085938 1339.6875 C 687.085938 1320.152344 739.105469 1304.328125 803.28125 1304.328125 C 867.449219 1304.328125 919.46875 1320.152344 919.46875 1339.6875 Z M 919.46875 1339.6875 "/>
<path style=" stroke:none;fill-rule:nonzero;fill:rgb(17.647059%,52.156866%,77.64706%);fill-opacity:1;" d="M 786.160156 1044.160156 L 820.390625 1044.160156 L 820.390625 1329.589844 L 786.160156 1329.589844 Z M 786.160156 1044.160156 "/>
<path style=" stroke:none;fill-rule:nonzero;fill:rgb(38.039216%,70.19608%,89.019608%);fill-opacity:1;" d="M 1394.339844 672.855469 L 1083.65625 660.226562 L 1189.746094 546.554688 L 1513.058594 561.714844 Z M 1394.339844 672.855469 "/>
<path style=" stroke:none;fill-rule:nonzero;fill:rgb(38.039216%,70.19608%,89.019608%);fill-opacity:1;" d="M 1394.339844 671.589844 L 1083.65625 658.960938 L 1189.746094 545.296875 L 1513.058594 560.449219 Z M 1394.339844 671.589844 "/>
<path style=" stroke:none;fill-rule:nonzero;fill:rgb(38.039216%,70.19608%,89.019608%);fill-opacity:1;" d="M 1543.371094 561.714844 L 1424.652344 672.855469 L 1566.101562 682.957031 L 1699.972656 569.292969 Z M 1543.371094 561.714844 "/>
<path style=" stroke:none;fill-rule:nonzero;fill:rgb(9.803922%,47.450981%,65.882355%);fill-opacity:1;" d="M 1018.117188 673.785156 L 1018.117188 688.9375 L 1057.695312 675.464844 L 1058.957031 659.050781 Z M 1018.117188 673.785156 "/>
<path style=" stroke:none;fill-rule:nonzero;fill:rgb(96.078432%,53.333336%,18.431373%);fill-opacity:1;" d="M 739.894531 275.617188 C 739.894531 275.617188 537.824219 460.011719 628.757812 601.457031 C 600.976562 646.925781 446.898438 907.09375 628.757812 967.714844 C 810.621094 1028.335938 883.03125 969.394531 893.136719 967.714844 C 931.871094 967.714844 989.117188 952.5625 1004.273438 952.5625 C 1019.433594 952.5625 1029.535156 962.667969 1037.960938 969.402344 C 1046.382812 976.136719 1078.375 969.394531 1076.6875 942.460938 C 1075.421875 922.246094 1072.636719 905.4375 1062.378906 894.464844 C 1058.960938 890.8125 1052.277344 886.886719 1048.0625 880.15625 C 1049.742188 856.582031 1039.640625 834.6875 1029.535156 819.535156 C 1019.433594 804.371094 1024.488281 755.546875 1024.488281 747.125 C 1024.488281 738.699219 1046.570312 742.003906 1073.320312 731.964844 C 1086.796875 726.910156 1094.394531 714.914062 1108.683594 701.652344 C 1125.132812 686.398438 1137.503906 662.804688 1147.417969 664.609375 C 1158.949219 666.703125 1186.175781 661.078125 1187.824219 645.242188 C 1188.832031 635.636719 1173.816406 623.050781 1159.195312 603.988281 C 1170.984375 592.203125 1176.042969 556.835938 1177.722656 524.847656 C 1179.402344 492.847656 1194.5625 406.964844 1197.929688 400.234375 C 1201.296875 393.5 1228.246094 368.246094 1240.03125 371.613281 C 1251.8125 374.972656 1226.566406 349.71875 1172.671875 356.460938 C 1140.675781 341.300781 1014.378906 268.882812 891.449219 267.203125 C 867.878906 243.628906 807.265625 213.316406 738.214844 213.316406 C 739.894531 236.890625 746.636719 263.828125 739.894531 275.617188 Z M 739.894531 275.617188 "/>
<path style=" stroke:none;fill-rule:nonzero;fill:rgb(95.294118%,64.313728%,18.82353%);fill-opacity:1;" d="M 1159.195312 603.988281 C 1170.980469 592.203125 1176.042969 556.835938 1177.722656 524.847656 C 1179.402344 492.847656 1194.5625 406.964844 1197.929688 400.234375 C 1201.296875 393.5 1228.242188 368.246094 1240.03125 371.613281 C 1251.808594 374.972656 1226.566406 349.71875 1172.667969 356.460938 C 1140.675781 341.296875 1014.378906 268.882812 891.449219 267.203125 C 888.601562 264.347656 895.335938 270.179688 891.449219 267.203125 C 823.621094 350.058594 685.277344 517.867188 738.214844 612.402344 C 751.3125 635.789062 788.1875 626.726562 815.683594 627.554688 C 867.871094 629.144531 915.03125 628.398438 960.5 632.609375 C 1006.660156 636.878906 1083.023438 578.925781 1127.835938 589.039062 C 1132.261719 588.40625 1136.027344 585.207031 1145.519531 590.304688 C 1158.621094 597.332031 1167.675781 615.046875 1159.195312 603.988281 Z M 1159.195312 603.988281 "/>
<path style=" stroke:none;fill-rule:nonzero;fill:rgb(75.686276%,42.745098%,16.078432%);fill-opacity:1;" d="M 1035.8125 965.230469 C 1044.230469 971.964844 1076.226562 965.222656 1074.539062 938.289062 C 1073.273438 918.074219 1070.484375 901.265625 1060.226562 890.292969 C 1056.808594 886.640625 1050.128906 882.714844 1045.910156 875.984375 C 1047.589844 852.410156 1037.492188 830.515625 1027.382812 815.363281 C 1017.480469 800.496094 1022.144531 753.269531 1022.332031 743.496094 L 1021.503906 742.960938 C 1021.503906 742.960938 838.386719 818.972656 715.996094 840.976562 C 593.605469 862.984375 542.414062 815.363281 542.414062 815.363281 L 540.480469 816.851562 C 533.945312 880.261719 552.027344 938.683594 626.609375 963.542969 C 808.472656 1024.164062 880.882812 965.222656 890.988281 963.542969 C 929.722656 963.542969 986.96875 948.390625 1002.121094 948.390625 C 1017.285156 948.390625 1027.382812 958.5 1035.8125 965.230469 Z M 1035.8125 965.230469 "/>
<path style=" stroke:none;fill-rule:nonzero;fill:rgb(96.862745%,72.941178%,80.392158%);fill-opacity:1;" d="M 1156.746094 559.152344 C 1157.328125 576.816406 1145.828125 586.472656 1128.164062 587.042969 C 1110.503906 587.621094 1093.363281 578.902344 1092.789062 561.242188 C 1092.210938 543.578125 1106.054688 528.796875 1123.714844 528.214844 C 1141.382812 527.640625 1156.167969 541.492188 1156.746094 559.152344 Z M 1156.746094 559.152344 "/>
<path style=" stroke:none;fill-rule:nonzero;fill:rgb(13.725491%,12.156863%,12.54902%);fill-opacity:1;" d="M 1015.417969 500.898438 C 1031.851562 492.53125 1057.316406 498.519531 1072.554688 514.898438 C 1059.53125 519.808594 1046.5 524.71875 1035.558594 530.292969 C 1029.316406 521.40625 1021.671875 509.777344 1015.417969 500.898438 "/>
<path style=" stroke:none;fill-rule:nonzero;fill:rgb(13.725491%,12.156863%,12.54902%);fill-opacity:1;" d="M 1032.613281 520.464844 C 1030.058594 532.484375 1025.789062 543.902344 1020.375 554.921875 C 1018.226562 559.289062 1024.757812 563.132812 1026.917969 558.746094 C 1032.613281 547.15625 1037.230469 535.128906 1039.925781 522.476562 C 1040.945312 517.714844 1033.644531 515.683594 1032.613281 520.464844 Z M 1032.613281 520.464844 "/>
<path style=" stroke:none;fill-rule:nonzero;fill:rgb(13.725491%,12.156863%,12.54902%);fill-opacity:1;" d="M 980.019531 615.082031 C 997.839844 593.65625 1015.652344 572.085938 1031.964844 549.484375 C 1029.617188 548.84375 1027.257812 548.203125 1024.910156 547.570312 C 1026.550781 568.53125 1020.738281 588.90625 1022.378906 609.878906 C 1022.761719 614.714844 1030.347656 614.753906 1029.953125 609.878906 C 1028.3125 588.910156 1034.136719 568.539062 1032.484375 547.570312 C 1032.175781 543.683594 1027.65625 542.5625 1025.421875 545.660156 C 1009.492188 567.734375 992.0625 588.800781 974.664062 609.722656 C 971.554688 613.457031 976.886719 618.839844 980.019531 615.082031 Z M 980.019531 615.082031 "/>
<path style=" stroke:none;fill-rule:nonzero;fill:rgb(13.725491%,12.156863%,12.54902%);fill-opacity:1;" d="M 1127.210938 666.703125 C 1138.25 666.890625 1198.148438 671.011719 1191.484375 644.230469 C 1187.339844 627.585938 1164.1875 592.113281 1145.992188 587.34375 C 1116.445312 579.601562 1084.507812 596.292969 1056.738281 605.804688 C 1020.730469 618.140625 985.875 628.964844 947.621094 626.992188 C 881.878906 623.585938 815.058594 628.640625 749.867188 621.960938 C 710.535156 617.921875 664.578125 617.417969 632.203125 591.5625 C 590.03125 557.875 606.691406 472.753906 629.511719 432.875 C 631.9375 428.617188 625.402344 424.808594 622.96875 429.046875 C 591.53125 483.996094 581.734375 585.027344 653.273438 612.484375 C 711.742188 634.921875 776.828125 630.578125 837.960938 631.496094 C 874.519531 632.042969 911.109375 632.851562 947.621094 634.566406 C 981.414062 636.148438 1011 628.511719 1043.25 618.246094 C 1073.527344 608.605469 1120.199219 582.863281 1150.550781 597.988281 C 1162.300781 603.847656 1172.882812 626.546875 1179.742188 637.484375 C 1195.550781 662.683594 1139.75 659.332031 1127.210938 659.128906 C 1122.3125 659.050781 1122.320312 666.628906 1127.210938 666.703125 Z M 1127.210938 666.703125 "/>
<path style=" stroke:none;fill-rule:nonzero;fill:rgb(13.725491%,12.156863%,12.54902%);fill-opacity:1;" d="M 1021.121094 747.539062 C 1075.648438 748.464844 1116.28125 713.90625 1140.578125 667.359375 C 1142.84375 663.03125 1136.300781 659.203125 1134.039062 663.535156 C 1110.964844 707.730469 1073.171875 740.84375 1021.121094 739.964844 C 1016.234375 739.878906 1016.238281 747.457031 1021.121094 747.539062 Z M 1021.121094 747.539062 "/>
<path style=" stroke:none;fill-rule:nonzero;fill:rgb(13.725491%,12.156863%,12.54902%);fill-opacity:1;" d="M 1022.378906 745.429688 C 1020.398438 767.859375 1018.175781 789.84375 1022.515625 812.113281 C 1027.039062 835.320312 1042.667969 851.691406 1042.585938 876.78125 C 1042.570312 881.667969 1050.148438 881.660156 1050.164062 876.78125 C 1050.222656 858.789062 1044.867188 845.085938 1037.101562 829.105469 C 1024.027344 802.234375 1027.417969 774.125 1029.957031 745.429688 C 1030.390625 740.566406 1022.808594 740.601562 1022.378906 745.429688 Z M 1022.378906 745.429688 "/>
<path style=" stroke:none;fill-rule:nonzero;fill:rgb(13.725491%,12.156863%,12.54902%);fill-opacity:1;" d="M 1025.496094 887.171875 C 1049.535156 882.210938 1064.742188 896.609375 1070.308594 918.746094 C 1075.015625 937.453125 1068.457031 969.5625 1043.769531 963.746094 C 1030.414062 960.605469 1017.914062 954.265625 1004.550781 950.929688 C 988.011719 946.808594 971.421875 951.035156 956.125 957.320312 C 951.671875 959.160156 953.625 966.496094 958.144531 964.628906 C 978.800781 956.132812 997.308594 955.71875 1018.433594 962.949219 C 1028.8125 966.503906 1038.867188 971.074219 1049.808594 972.558594 C 1063.472656 974.410156 1070.558594 964.460938 1075.136719 953.269531 C 1090.199219 916.488281 1065.277344 871.246094 1023.476562 879.863281 C 1018.695312 880.855469 1020.726562 888.152344 1025.496094 887.171875 Z M 1025.496094 887.171875 "/>
<path style=" stroke:none;fill-rule:nonzero;fill:rgb(96.862745%,72.941178%,80.392158%);fill-opacity:1;" d="M 967.238281 521.464844 C 967.238281 550.296875 943.855469 573.675781 915.023438 573.675781 C 886.195312 573.675781 862.824219 550.296875 862.824219 521.464844 C 862.824219 492.644531 886.195312 469.265625 915.023438 469.265625 C 943.855469 469.265625 967.238281 492.644531 967.238281 521.464844 Z M 967.238281 521.464844 "/>
<g clip-path="url(#clip1)" clip-rule="nonzero">
<g clip-path="url(#clip2)" clip-rule="nonzero">
<path style=" stroke:none;fill-rule:nonzero;fill:rgb(44.705883%,22.745098%,9.411765%);fill-opacity:1;" d="M 1064.082031 278.671875 C 1058.574219 307.347656 1034.984375 361.285156 1062.460938 380.898438 C 1097.371094 410.210938 1113.734375 333.78125 1116.71875 305.078125 "/>
</g>
</g>
<g clip-path="url(#clip3)" clip-rule="nonzero">
<g clip-path="url(#clip4)" clip-rule="nonzero">
<path style=" stroke:none;fill-rule:nonzero;fill:rgb(44.705883%,22.745098%,9.411765%);fill-opacity:1;" d="M 1128.894531 322.332031 C 1103.636719 369.691406 1154.15625 391.796875 1151.625 334.964844 "/>
</g>
</g>
<g clip-path="url(#clip5)" clip-rule="nonzero">
<g clip-path="url(#clip6)" clip-rule="nonzero">
<path style=" stroke:none;fill-rule:nonzero;fill:rgb(44.705883%,22.745098%,9.411765%);fill-opacity:1;" d="M 1002.601562 268.875 C 969.761719 342.765625 1035.429688 378.097656 1045.539062 278.515625 "/>
</g>
</g>
<g clip-path="url(#clip7)" clip-rule="nonzero">
<g clip-path="url(#clip8)" clip-rule="nonzero">
<path style=" stroke:none;fill-rule:nonzero;fill:rgb(44.705883%,22.745098%,9.411765%);fill-opacity:1;" d="M 737.378906 213.316406 L 765.164062 248.675781 L 871.25 252.464844 L 897.769531 230.992188 L 882.617188 194.367188 L 809.363281 170.371094 L 765.164062 175.425781 Z M 737.378906 213.316406 "/>
</g>
</g>
<g clip-path="url(#clip9)" clip-rule="nonzero">
<g clip-path="url(#clip10)" clip-rule="nonzero">
<path style=" stroke:none;fill-rule:nonzero;fill:rgb(44.705883%,22.745098%,9.411765%);fill-opacity:1;" d="M 1239.1875 371.613281 L 1202.140625 371.183594 L 1171.832031 350.976562 L 1183.199219 332.027344 L 1210.980469 316.875 C 1210.980469 316.875 1236.242188 319.398438 1238.765625 323.183594 C 1241.296875 326.980469 1252.660156 362.335938 1252.660156 362.335938 Z M 1239.1875 371.613281 "/>
</g>
</g>
<g clip-path="url(#clip11)" clip-rule="nonzero">
<g clip-path="url(#clip12)" clip-rule="nonzero">
<path style=" stroke:none;fill-rule:nonzero;fill:rgb(54.901963%,31.764707%,13.333334%);fill-opacity:1;" d="M 1064.089844 278.679688 C 1058.582031 307.351562 1034.984375 361.296875 1062.46875 380.90625 C 1097.371094 410.210938 1113.734375 333.789062 1116.71875 305.085938 "/>
</g>
</g>
<g clip-path="url(#clip13)" clip-rule="nonzero">
<g clip-path="url(#clip14)" clip-rule="nonzero">
<path style=" stroke:none;fill-rule:nonzero;fill:rgb(54.901963%,31.764707%,13.333334%);fill-opacity:1;" d="M 1128.894531 322.339844 C 1103.640625 369.699219 1154.15625 391.804688 1151.625 334.972656 "/>
</g>
</g>
<g clip-path="url(#clip15)" clip-rule="nonzero">
<g clip-path="url(#clip16)" clip-rule="nonzero">
<path style=" stroke:none;fill-rule:nonzero;fill:rgb(54.901963%,31.764707%,13.333334%);fill-opacity:1;" d="M 1002.609375 268.882812 C 969.761719 342.765625 1035.4375 378.105469 1045.546875 278.523438 "/>
</g>
</g>
<g clip-path="url(#clip17)" clip-rule="nonzero">
<g clip-path="url(#clip18)" clip-rule="nonzero">
<path style=" stroke:none;fill-rule:nonzero;fill:rgb(54.901963%,31.764707%,13.333334%);fill-opacity:1;" d="M 1239.195312 371.613281 L 1202.148438 371.183594 L 1171.839844 350.976562 L 1183.207031 332.035156 L 1210.988281 316.875 C 1210.988281 316.875 1236.25 319.402344 1238.773438 323.191406 C 1241.304688 326.980469 1252.667969 362.34375 1252.667969 362.34375 Z M 1239.195312 371.613281 "/>
</g>
</g>
<path style=" stroke:none;fill-rule:nonzero;fill:rgb(93.333334%,87.058824%,70.19608%);fill-opacity:1;" d="M 737.378906 213.316406 C 737.378906 213.316406 808.941406 248.683594 813.996094 260.460938 C 795.46875 260.460938 739.058594 275.617188 739.058594 275.617188 Z M 737.378906 213.316406 "/>
<path style=" stroke:none;fill-rule:nonzero;fill:rgb(44.705883%,22.745098%,9.411765%);fill-opacity:1;" d="M 796.160156 241.121094 C 801.917969 248.757812 807.882812 256.433594 815.472656 262.351562 C 820.550781 266.300781 827.75 259.203125 822.621094 255.207031 C 815.714844 249.820312 810.125 242.972656 804.882812 236.015625 C 801.019531 230.886719 792.230469 235.910156 796.160156 241.121094 Z M 796.160156 241.121094 "/>
<path style=" stroke:none;fill-rule:nonzero;fill:rgb(75.686276%,42.745098%,16.078432%);fill-opacity:1;" d="M 544.566406 819.535156 C 544.566406 819.535156 608.558594 945.828125 817.363281 876.78125 C 861.144531 873.414062 920.078125 910.46875 892.292969 964.355469 C 864.519531 1018.238281 638.867188 1028.328125 558.039062 944.140625 C 541.199219 920.566406 527.730469 859.945312 544.566406 819.535156 Z M 544.566406 819.535156 "/>
<path style=" stroke:none;fill-rule:nonzero;fill:rgb(13.725491%,12.156863%,12.54902%);fill-opacity:1;" d="M 578.042969 866.882812 C 626.6875 906.039062 692.121094 908.34375 751.273438 897.980469 C 792.359375 890.78125 832.5625 859.132812 871.039062 890.457031 C 899.71875 913.804688 907.242188 959.484375 868.699219 976.820312 C 862.769531 979.496094 867.914062 988.191406 873.804688 985.542969 C 935.683594 957.714844 896.617188 874.558594 841.910156 865.835938 C 827.3125 863.507812 811.925781 868.75 798.355469 873.339844 C 775.035156 881.222656 753.113281 888.152344 728.566406 891.292969 C 679.441406 897.550781 624.828125 891.648438 585.183594 859.734375 C 580.160156 855.691406 572.957031 862.792969 578.042969 866.882812 Z M 578.042969 866.882812 "/>
<g clip-path="url(#clip19)" clip-rule="nonzero">
<g clip-path="url(#clip20)" clip-rule="nonzero">
<path style=" stroke:none;fill-rule:nonzero;fill:rgb(13.725491%,12.156863%,12.54902%);fill-opacity:1;" d="M 723.785156 859.320312 C 734.011719 931.238281 779.628906 1017.738281 852.40625 1041.824219 C 877.222656 1050.03125 887.769531 1010.996094 863.15625 1002.847656 C 804.296875 983.378906 770.804688 905.195312 762.761719 848.574219 C 759.101562 822.851562 720.160156 833.835938 723.785156 859.320312 Z M 723.785156 859.320312 "/>
</g>
</g>
<g clip-path="url(#clip21)" clip-rule="nonzero">
<g clip-path="url(#clip22)" clip-rule="nonzero">
<path style=" stroke:none;fill-rule:nonzero;fill:rgb(13.725491%,12.156863%,12.54902%);fill-opacity:1;" d="M 674.226562 853.949219 C 670.753906 915.679688 675.257812 1017.023438 742.355469 1045.53125 C 760.132812 1053.074219 775.601562 1026.980469 757.660156 1019.359375 C 701.648438 995.566406 701.664062 905.132812 704.539062 853.949219 C 705.640625 834.414062 675.320312 834.511719 674.226562 853.949219 Z M 674.226562 853.949219 "/>
</g>
</g>
<path style=" stroke:none;fill-rule:nonzero;fill:rgb(13.725491%,12.156863%,12.54902%);fill-opacity:1;" d="M 782.671875 445.976562 C 823.078125 457.074219 870.714844 469.011719 898.882812 502.261719 C 902.039062 505.996094 907.378906 500.613281 904.238281 496.90625 C 875.28125 462.714844 826.160156 450.0625 784.691406 438.664062 C 779.96875 437.378906 777.972656 444.691406 782.671875 445.976562 Z M 782.671875 445.976562 "/>
<path style=" stroke:none;fill-rule:nonzero;fill:rgb(13.725491%,12.156863%,12.54902%);fill-opacity:1;" d="M 811.640625 513.339844 C 838.835938 506.382812 869.460938 510.824219 892.910156 526.421875 C 896.992188 529.132812 900.78125 522.566406 896.738281 519.886719 C 871.644531 503.195312 838.683594 498.601562 809.621094 506.027344 C 804.890625 507.238281 806.902344 514.546875 811.640625 513.339844 Z M 811.640625 513.339844 "/>
<path style=" stroke:none;fill-rule:nonzero;fill:rgb(13.725491%,12.156863%,12.54902%);fill-opacity:1;" d="M 775.496094 583.675781 C 812.210938 559.046875 854.230469 544.617188 898.191406 540.414062 C 903.011719 539.957031 903.054688 532.371094 898.191406 532.839844 C 852.902344 537.160156 809.523438 551.742188 771.671875 577.140625 C 767.632812 579.84375 771.421875 586.410156 775.496094 583.675781 Z M 775.496094 583.675781 "/>
<path style=" stroke:none;fill-rule:nonzero;fill:rgb(93.333334%,87.058824%,70.19608%);fill-opacity:1;" d="M 1197.09375 400.230469 L 1239.1875 371.613281 L 1189.511719 369.917969 C 1189.511719 369.917969 1197.9375 393.5 1197.09375 400.230469 Z M 1197.09375 400.230469 "/>
<path style=" stroke:none;fill-rule:nonzero;fill:rgb(13.725491%,12.156863%,12.54902%);fill-opacity:1;" d="M 1153.464844 552.773438 C 1177.675781 530.128906 1208.777344 524.539062 1240.707031 530.171875 C 1245.484375 531.015625 1247.523438 523.71875 1242.71875 522.867188 C 1207.917969 516.730469 1174.417969 522.816406 1148.109375 547.421875 C 1144.523438 550.765625 1149.902344 556.113281 1153.464844 552.773438 Z M 1153.464844 552.773438 "/>
<path style=" stroke:none;fill-rule:nonzero;fill:rgb(13.725491%,12.156863%,12.54902%);fill-opacity:1;" d="M 1155.160156 570.59375 C 1172.675781 564.3125 1190.261719 567.9375 1206.125 576.945312 C 1210.378906 579.355469 1214.199219 572.816406 1209.949219 570.398438 C 1192.445312 560.464844 1172.488281 556.351562 1153.148438 563.28125 C 1148.582031 564.914062 1150.542969 572.246094 1155.160156 570.59375 Z M 1155.160156 570.59375 "/>
<path style=" stroke:none;fill-rule:nonzero;fill:rgb(54.901963%,31.764707%,13.333334%);fill-opacity:1;" d="M 1188.667969 370.761719 C 1193.160156 370.761719 1197.652344 370.761719 1202.140625 370.761719 C 1205.394531 370.761719 1205.394531 365.707031 1202.140625 365.707031 C 1197.652344 365.707031 1193.160156 365.707031 1188.667969 365.707031 C 1185.414062 365.707031 1185.414062 370.761719 1188.667969 370.761719 Z M 1188.667969 370.761719 "/>
<path style=" stroke:none;fill-rule:nonzero;fill:rgb(13.725491%,12.156863%,12.54902%);fill-opacity:1;" d="M 937.597656 461.140625 C 955.476562 466.417969 972.746094 473.527344 990.632812 478.816406 C 995.332031 480.203125 997.320312 472.882812 992.652344 471.503906 C 974.765625 466.222656 957.496094 459.113281 939.597656 453.820312 C 934.90625 452.441406 932.910156 459.753906 937.597656 461.140625 Z M 937.597656 461.140625 "/>
<path style=" stroke:none;fill-rule:nonzero;fill:rgb(13.725491%,12.156863%,12.54902%);fill-opacity:1;" d="M 1094.207031 506.601562 C 1106.226562 509.160156 1117.644531 513.421875 1128.664062 518.847656 C 1133.03125 520.992188 1136.871094 514.460938 1132.488281 512.308594 C 1120.898438 506.609375 1108.871094 501.992188 1096.21875 499.292969 C 1091.457031 498.277344 1089.425781 505.582031 1094.207031 506.601562 Z M 1094.207031 506.601562 "/>
<path style=" stroke:none;fill-rule:nonzero;fill:rgb(13.725491%,12.156863%,12.54902%);fill-opacity:1;" d="M 1096.730469 481.339844 C 1114.601562 484.359375 1130.351562 493.09375 1146.347656 501.160156 C 1150.691406 503.359375 1154.535156 496.824219 1150.171875 494.625 C 1133.625 486.28125 1117.238281 477.160156 1098.746094 474.03125 C 1093.964844 473.226562 1091.925781 480.523438 1096.730469 481.339844 Z M 1096.730469 481.339844 "/>
<path style=" stroke:none;fill-rule:nonzero;fill:rgb(13.725491%,12.156863%,12.54902%);fill-opacity:1;" d="M 934.394531 427.585938 C 959.550781 430.246094 981.902344 443.726562 1005.800781 451.03125 C 1010.484375 452.464844 1012.472656 445.140625 1007.8125 443.71875 C 983.140625 436.1875 960.378906 422.75 934.394531 420.007812 C 929.546875 419.496094 929.589844 427.082031 934.394531 427.585938 Z M 934.394531 427.585938 "/>
<path style=" stroke:none;fill-rule:nonzero;fill:rgb(13.725491%,12.156863%,12.54902%);fill-opacity:1;" d="M 1239.023438 367.953125 C 1204.851562 379.648438 1189.394531 406.671875 1184.765625 441.378906 C 1177.902344 492.832031 1184.148438 547.136719 1156.777344 593.648438 C 1154.292969 597.875 1160.84375 601.679688 1163.316406 597.484375 C 1183.015625 563.996094 1186.382812 526.007812 1188.546875 488.011719 C 1191.046875 443.808594 1191.785156 392.113281 1241.03125 375.265625 C 1245.632812 373.691406 1243.660156 366.371094 1239.023438 367.953125 Z M 1239.023438 367.953125 "/>
</g>
</svg>
