<?xml version="1.0" encoding="UTF-8"?>
<svg xmlns="http://www.w3.org/2000/svg" xmlns:xlink="http://www.w3.org/1999/xlink" width="px" height="px" viewBox="0 0 87 41" version="1.1">
<defs>
<radialGradient id="radial0" gradientUnits="userSpaceOnUse" cx="0" cy="0" fx="0" fy="0" r="1" gradientTransform="matrix(-33.724665,-92.356726,154.458445,-56.401515,32.189949,53.561501)">
<stop offset="0.24392" style="stop-color:rgb(100%,10.588235%,56.470588%);stop-opacity:1;"/>
<stop offset="0.436673" style="stop-color:rgb(97.254902%,0.784314%,38.039216%);stop-opacity:1;"/>
<stop offset="0.688476" style="stop-color:rgb(92.941176%,0%,75.294118%);stop-opacity:1;"/>
<stop offset="0.776787" style="stop-color:rgb(77.254902%,0%,91.372549%);stop-opacity:1;"/>
<stop offset="0.893155" style="stop-color:rgb(43.921569%,9.019608%,100%);stop-opacity:1;"/>
</radialGradient>
<radialGradient id="radial1" gradientUnits="userSpaceOnUse" cx="0" cy="0" fx="0" fy="0" r="1" gradientTransform="matrix(11.268027,-33.198342,23.169429,7.86406,10.6887,51.261501)">
<stop offset="0" style="stop-color:rgb(100%,83.921569%,0%);stop-opacity:1;"/>
<stop offset="0.484375" style="stop-color:rgb(100%,41.176471%,18.823529%);stop-opacity:1;"/>
<stop offset="0.734375" style="stop-color:rgb(99.607843%,23.137255%,21.176471%);stop-opacity:1;"/>
<stop offset="1" style="stop-color:rgb(99.607843%,23.137255%,21.176471%);stop-opacity:0;"/>
</radialGradient>
</defs>
<g id="surface1">
<path style=" stroke:none;fill-rule:nonzero;fill:url(#radial0);" d="M 10.207031 22.988281 L 10.207031 17.058594 L 14.984375 17.058594 C 18.75 17.058594 21.289062 14.828125 21.289062 11.589844 C 21.289062 8.40625 19.023438 6.3125 14.929688 6.3125 C 11.109375 6.3125 8.570312 8.570312 8.351562 11.996094 L 0.765625 11.996094 C 1.0625 4.734375 6.742188 0 15.285156 0 C 23.472656 0 29.066406 4.191406 29.066406 10.472656 C 29.066406 15.289062 25.765625 18.773438 20.933594 19.644531 L 20.933594 19.804688 C 26.800781 20.296875 30.59375 23.832031 30.59375 29.273438 C 30.59375 36.320312 24.179688 41 15.09375 41 C 6.195312 41 0.382812 36.128906 0 28.894531 L 7.886719 28.894531 C 8.132812 32.210938 10.863281 34.390625 15.203125 34.390625 C 19.324219 34.390625 22.214844 32.078125 22.214844 28.757812 C 22.214844 25.164062 19.515625 22.988281 15.066406 22.988281 Z M 10.207031 22.988281 "/>
<path style=" stroke:none;fill-rule:nonzero;fill:url(#radial1);" d="M 10.207031 22.988281 L 10.207031 17.058594 L 14.984375 17.058594 C 18.75 17.058594 21.289062 14.828125 21.289062 11.589844 C 21.289062 8.40625 19.023438 6.3125 14.929688 6.3125 C 11.109375 6.3125 8.570312 8.570312 8.351562 11.996094 L 0.765625 11.996094 C 1.0625 4.734375 6.742188 0 15.285156 0 C 23.472656 0 29.066406 4.191406 29.066406 10.472656 C 29.066406 15.289062 25.765625 18.773438 20.933594 19.644531 L 20.933594 19.804688 C 26.800781 20.296875 30.59375 23.832031 30.59375 29.273438 C 30.59375 36.320312 24.179688 41 15.09375 41 C 6.195312 41 0.382812 36.128906 0 28.894531 L 7.886719 28.894531 C 8.132812 32.210938 10.863281 34.390625 15.203125 34.390625 C 19.324219 34.390625 22.214844 32.078125 22.214844 28.757812 C 22.214844 25.164062 19.515625 22.988281 15.066406 22.988281 Z M 10.207031 22.988281 "/>
<path style=" stroke:none;fill-rule:nonzero;fill:rgb(47.843137%,47.843137%,47.843137%);fill-opacity:1;" d="M 80.769531 27.484375 L 82.332031 27.484375 C 82.40625 28.121094 83.070312 28.539062 83.929688 28.539062 C 84.792969 28.539062 85.382812 28.125 85.382812 27.558594 C 85.382812 27.058594 85.011719 26.78125 84.078125 26.570312 L 83.070312 26.351562 C 81.644531 26.046875 80.941406 25.328125 80.941406 24.199219 C 80.941406 22.777344 82.175781 21.835938 83.902344 21.835938 C 85.703125 21.835938 86.835938 22.761719 86.859375 24.15625 L 85.34375 24.15625 C 85.289062 23.503906 84.714844 23.109375 83.90625 23.109375 C 83.109375 23.109375 82.570312 23.488281 82.570312 24.058594 C 82.570312 24.535156 82.945312 24.804688 83.835938 25.007812 L 84.777344 25.203125 C 86.324219 25.535156 87 26.199219 87 27.375 C 87 28.871094 85.78125 29.816406 83.863281 29.816406 C 82.003906 29.816406 80.820312 28.933594 80.769531 27.484375 Z M 80.769531 27.484375 "/>
<path style=" stroke:none;fill-rule:nonzero;fill:rgb(47.843137%,47.843137%,47.843137%);fill-opacity:1;" d="M 73.832031 27.484375 L 75.394531 27.484375 C 75.46875 28.121094 76.132812 28.539062 76.992188 28.539062 C 77.855469 28.539062 78.445312 28.125 78.445312 27.558594 C 78.445312 27.058594 78.074219 26.78125 77.140625 26.570312 L 76.132812 26.351562 C 74.707031 26.046875 74.003906 25.328125 74.003906 24.199219 C 74.003906 22.777344 75.238281 21.835938 76.964844 21.835938 C 78.765625 21.835938 79.898438 22.761719 79.921875 24.15625 L 78.40625 24.15625 C 78.351562 23.503906 77.777344 23.109375 76.96875 23.109375 C 76.171875 23.109375 75.632812 23.488281 75.632812 24.058594 C 75.632812 24.535156 76.007812 24.804688 76.898438 25.007812 L 77.839844 25.203125 C 79.386719 25.535156 80.0625 26.199219 80.0625 27.375 C 80.0625 28.871094 78.84375 29.816406 76.925781 29.816406 C 75.066406 29.816406 73.882812 28.933594 73.832031 27.484375 Z M 73.832031 27.484375 "/>
<path style=" stroke:none;fill-rule:nonzero;fill:rgb(47.843137%,47.843137%,47.843137%);fill-opacity:1;" d="M 72.953125 28.347656 L 72.953125 29.683594 L 67.828125 29.683594 L 67.828125 21.96875 L 72.953125 21.96875 L 72.953125 23.300781 L 69.445312 23.300781 L 69.445312 25.160156 L 72.753906 25.160156 L 72.753906 26.402344 L 69.445312 26.402344 L 69.445312 28.347656 Z M 72.953125 28.347656 "/>
<path style=" stroke:none;fill-rule:nonzero;fill:rgb(47.843137%,47.843137%,47.843137%);fill-opacity:1;" d="M 63.421875 29.816406 C 61.167969 29.816406 59.761719 28.3125 59.761719 25.824219 C 59.761719 23.339844 61.179688 21.835938 63.421875 21.835938 C 65.28125 21.835938 66.695312 23.011719 66.820312 24.738281 L 65.242188 24.738281 C 65.09375 23.792969 64.363281 23.171875 63.421875 23.171875 C 62.199219 23.171875 61.410156 24.195312 61.410156 25.816406 C 61.410156 27.464844 62.1875 28.480469 63.425781 28.480469 C 64.386719 28.480469 65.078125 27.917969 65.25 27.003906 L 66.824219 27.003906 C 66.644531 28.726562 65.320312 29.816406 63.421875 29.816406 Z M 63.421875 29.816406 "/>
<path style=" stroke:none;fill-rule:nonzero;fill:rgb(47.843137%,47.843137%,47.843137%);fill-opacity:1;" d="M 55.222656 21.835938 C 57.511719 21.835938 58.957031 23.371094 58.957031 25.828125 C 58.957031 28.28125 57.511719 29.816406 55.222656 29.816406 C 52.929688 29.816406 51.492188 28.28125 51.492188 25.828125 C 51.492188 23.371094 52.929688 21.835938 55.222656 21.835938 Z M 55.222656 23.183594 C 53.960938 23.183594 53.144531 24.210938 53.144531 25.828125 C 53.144531 27.441406 53.953125 28.464844 55.222656 28.464844 C 56.488281 28.464844 57.300781 27.441406 57.300781 25.828125 C 57.300781 24.210938 56.488281 23.183594 55.222656 23.183594 Z M 55.222656 23.183594 "/>
<path style=" stroke:none;fill-rule:nonzero;fill:rgb(47.843137%,47.843137%,47.843137%);fill-opacity:1;" d="M 46.320312 23.230469 L 46.320312 25.691406 L 47.714844 25.691406 C 48.527344 25.691406 49.007812 25.226562 49.007812 24.460938 C 49.007812 23.714844 48.503906 23.230469 47.699219 23.230469 Z M 46.320312 26.859375 L 46.320312 29.683594 L 44.699219 29.683594 L 44.699219 21.96875 L 47.871094 21.96875 C 49.648438 21.96875 50.667969 22.90625 50.667969 24.429688 C 50.667969 25.417969 50.152344 26.273438 49.261719 26.621094 L 50.894531 29.683594 L 49.058594 29.683594 L 47.617188 26.859375 Z M 46.320312 26.859375 "/>
<path style=" stroke:none;fill-rule:nonzero;fill:rgb(47.843137%,47.843137%,47.843137%);fill-opacity:1;" d="M 37.914062 21.96875 L 41.0625 21.96875 C 42.648438 21.96875 43.742188 23.023438 43.742188 24.609375 C 43.742188 26.191406 42.609375 27.25 40.980469 27.25 L 39.53125 27.25 L 39.53125 29.683594 L 37.914062 29.683594 Z M 39.53125 23.246094 L 39.53125 25.988281 L 40.625 25.988281 C 41.554688 25.988281 42.09375 25.496094 42.09375 24.617188 C 42.09375 23.738281 41.558594 23.246094 40.632812 23.246094 Z M 39.53125 23.246094 "/>
<path style=" stroke:none;fill-rule:nonzero;fill:rgb(47.843137%,47.843137%,47.843137%);fill-opacity:1;" d="M 57.75 11.027344 L 60.898438 11.027344 C 62.484375 11.027344 63.578125 12.078125 63.578125 13.664062 C 63.578125 15.246094 62.445312 16.304688 60.816406 16.304688 L 59.367188 16.304688 L 59.367188 18.738281 L 57.75 18.738281 Z M 59.367188 12.304688 L 59.367188 15.042969 L 60.460938 15.042969 C 61.390625 15.042969 61.929688 14.554688 61.929688 13.671875 C 61.929688 12.792969 61.394531 12.304688 60.46875 12.304688 Z M 59.367188 12.304688 "/>
<path style=" stroke:none;fill-rule:nonzero;fill:rgb(47.843137%,47.843137%,47.843137%);fill-opacity:1;" d="M 56.582031 17.402344 L 56.582031 18.738281 L 51.453125 18.738281 L 51.453125 11.027344 L 56.582031 11.027344 L 56.582031 12.355469 L 53.074219 12.355469 L 53.074219 14.214844 L 56.382812 14.214844 L 56.382812 15.457031 L 53.074219 15.457031 L 53.074219 17.402344 Z M 56.582031 17.402344 "/>
<path style=" stroke:none;fill-rule:nonzero;fill:rgb(47.843137%,47.843137%,47.843137%);fill-opacity:1;" d="M 48.320312 18.738281 L 46.699219 18.738281 L 46.699219 12.355469 L 44.464844 12.355469 L 44.464844 11.027344 L 50.558594 11.027344 L 50.558594 12.355469 L 48.320312 12.355469 Z M 48.320312 18.738281 "/>
<path style=" stroke:none;fill-rule:nonzero;fill:rgb(47.843137%,47.843137%,47.843137%);fill-opacity:1;" d="M 37.625 16.539062 L 39.183594 16.539062 C 39.257812 17.175781 39.925781 17.59375 40.78125 17.59375 C 41.644531 17.59375 42.234375 17.183594 42.234375 16.617188 C 42.234375 16.113281 41.863281 15.835938 40.933594 15.625 L 39.925781 15.40625 C 38.496094 15.101562 37.796875 14.382812 37.796875 13.253906 C 37.796875 11.832031 39.027344 10.890625 40.753906 10.890625 C 42.554688 10.890625 43.6875 11.816406 43.714844 13.210938 L 42.195312 13.210938 C 42.144531 12.558594 41.570312 12.164062 40.761719 12.164062 C 39.960938 12.164062 39.425781 12.542969 39.425781 13.117188 C 39.425781 13.589844 39.800781 13.859375 40.691406 14.0625 L 41.628906 14.257812 C 43.179688 14.589844 43.855469 15.253906 43.855469 16.429688 C 43.855469 17.925781 42.636719 18.871094 40.71875 18.871094 C 38.855469 18.871094 37.671875 17.988281 37.625 16.539062 Z M 37.625 16.539062 "/>
</g>
</svg>
