<?xml version="1.0" encoding="UTF-8"?>
<svg xmlns="http://www.w3.org/2000/svg" xmlns:xlink="http://www.w3.org/1999/xlink" width="px" height="px" viewBox="0 0 195 41" version="1.1">
<defs>
<radialGradient id="radial0" gradientUnits="userSpaceOnUse" cx="0" cy="0" fx="0" fy="0" r="1" gradientTransform="matrix(-105.818049,-2.251668,0.248689,-11.687255,101.002998,53.3064)">
<stop offset="0.24392" style="stop-color:rgb(100%,10.588235%,56.470588%);stop-opacity:1;"/>
<stop offset="0.436673" style="stop-color:rgb(97.254902%,0.784314%,38.039216%);stop-opacity:1;"/>
<stop offset="0.688476" style="stop-color:rgb(92.941176%,0%,75.294118%);stop-opacity:1;"/>
<stop offset="0.776787" style="stop-color:rgb(77.254902%,0%,91.372549%);stop-opacity:1;"/>
<stop offset="0.893155" style="stop-color:rgb(43.921569%,9.019608%,100%);stop-opacity:1;"/>
</radialGradient>
<radialGradient id="radial1" gradientUnits="userSpaceOnUse" cx="0" cy="0" fx="0" fy="0" r="1" gradientTransform="matrix(35.356028,-0.809718,0.0425009,1.855783,33.5382,53.250301)">
<stop offset="0" style="stop-color:rgb(100%,83.921569%,0%);stop-opacity:1;"/>
<stop offset="0.484375" style="stop-color:rgb(100%,41.176471%,18.823529%);stop-opacity:1;"/>
<stop offset="0.734375" style="stop-color:rgb(99.607843%,23.137255%,21.176471%);stop-opacity:1;"/>
<stop offset="1" style="stop-color:rgb(99.607843%,23.137255%,21.176471%);stop-opacity:0;"/>
</radialGradient>
<radialGradient id="radial2" gradientUnits="userSpaceOnUse" cx="0" cy="0" fx="0" fy="0" r="1" gradientTransform="matrix(-105.81801,-2.253528,0.248895,-11.68725,395.002991,53.3064)">
<stop offset="0.24392" style="stop-color:rgb(100%,10.588235%,56.470588%);stop-opacity:1;"/>
<stop offset="0.436673" style="stop-color:rgb(97.254902%,0.784314%,38.039216%);stop-opacity:1;"/>
<stop offset="0.688476" style="stop-color:rgb(92.941176%,0%,75.294118%);stop-opacity:1;"/>
<stop offset="0.776787" style="stop-color:rgb(77.254902%,0%,91.372549%);stop-opacity:1;"/>
<stop offset="0.893155" style="stop-color:rgb(43.921569%,9.019608%,100%);stop-opacity:1;"/>
</radialGradient>
<radialGradient id="radial3" gradientUnits="userSpaceOnUse" cx="0" cy="0" fx="0" fy="0" r="1" gradientTransform="matrix(35.356029,-0.809712,0.0425005,1.855783,327.537994,53.250301)">
<stop offset="0" style="stop-color:rgb(100%,83.921569%,0%);stop-opacity:1;"/>
<stop offset="0.484375" style="stop-color:rgb(100%,41.176471%,18.823529%);stop-opacity:1;"/>
<stop offset="0.734375" style="stop-color:rgb(99.607843%,23.137255%,21.176471%);stop-opacity:1;"/>
<stop offset="1" style="stop-color:rgb(99.607843%,23.137255%,21.176471%);stop-opacity:0;"/>
</radialGradient>
<radialGradient id="radial4" gradientUnits="userSpaceOnUse" cx="0" cy="0" fx="0" fy="0" r="1" gradientTransform="matrix(-33.724665,-92.356726,154.458445,-56.401515,86.190002,53.561501)">
<stop offset="0.24392" style="stop-color:rgb(100%,10.588235%,56.470588%);stop-opacity:1;"/>
<stop offset="0.436673" style="stop-color:rgb(97.254902%,0.784314%,38.039216%);stop-opacity:1;"/>
<stop offset="0.688476" style="stop-color:rgb(92.941176%,0%,75.294118%);stop-opacity:1;"/>
<stop offset="0.776787" style="stop-color:rgb(77.254902%,0%,91.372549%);stop-opacity:1;"/>
<stop offset="0.893155" style="stop-color:rgb(43.921569%,9.019608%,100%);stop-opacity:1;"/>
</radialGradient>
<radialGradient id="radial5" gradientUnits="userSpaceOnUse" cx="0" cy="0" fx="0" fy="0" r="1" gradientTransform="matrix(11.268027,-33.198342,23.169429,7.86406,64.688499,51.261501)">
<stop offset="0" style="stop-color:rgb(100%,83.921569%,0%);stop-opacity:1;"/>
<stop offset="0.484375" style="stop-color:rgb(100%,41.176471%,18.823529%);stop-opacity:1;"/>
<stop offset="0.734375" style="stop-color:rgb(99.607843%,23.137255%,21.176471%);stop-opacity:1;"/>
<stop offset="1" style="stop-color:rgb(99.607843%,23.137255%,21.176471%);stop-opacity:0;"/>
</radialGradient>
<radialGradient id="radial6" gradientUnits="userSpaceOnUse" cx="0" cy="0" fx="0" fy="0" r="1" gradientTransform="matrix(-6.866777,-17.972895,31.10301,-11.883307,141.324997,32.260201)">
<stop offset="0.24392" style="stop-color:rgb(100%,10.588235%,56.470588%);stop-opacity:1;"/>
<stop offset="0.436673" style="stop-color:rgb(97.254902%,0.784314%,38.039216%);stop-opacity:1;"/>
<stop offset="0.688476" style="stop-color:rgb(92.941176%,0%,75.294118%);stop-opacity:1;"/>
<stop offset="0.776787" style="stop-color:rgb(77.254902%,0%,91.372549%);stop-opacity:1;"/>
<stop offset="0.893155" style="stop-color:rgb(43.921569%,9.019608%,100%);stop-opacity:1;"/>
</radialGradient>
<radialGradient id="radial7" gradientUnits="userSpaceOnUse" cx="0" cy="0" fx="0" fy="0" r="1" gradientTransform="matrix(2.294298,-6.46051,4.671874,1.659106,136.947006,31.812651)">
<stop offset="0" style="stop-color:rgb(100%,83.921569%,0%);stop-opacity:1;"/>
<stop offset="0.484375" style="stop-color:rgb(100%,41.176471%,18.823529%);stop-opacity:1;"/>
<stop offset="0.734375" style="stop-color:rgb(99.607843%,23.137255%,21.176471%);stop-opacity:1;"/>
<stop offset="1" style="stop-color:rgb(99.607843%,23.137255%,21.176471%);stop-opacity:0;"/>
</radialGradient>
<radialGradient id="radial8" gradientUnits="userSpaceOnUse" cx="0" cy="0" fx="0" fy="0" r="1" gradientTransform="matrix(-6.866777,-17.972895,31.10301,-11.883307,134.387497,32.260201)">
<stop offset="0.24392" style="stop-color:rgb(100%,10.588235%,56.470588%);stop-opacity:1;"/>
<stop offset="0.436673" style="stop-color:rgb(97.254902%,0.784314%,38.039216%);stop-opacity:1;"/>
<stop offset="0.688476" style="stop-color:rgb(92.941176%,0%,75.294118%);stop-opacity:1;"/>
<stop offset="0.776787" style="stop-color:rgb(77.254902%,0%,91.372549%);stop-opacity:1;"/>
<stop offset="0.893155" style="stop-color:rgb(43.921569%,9.019608%,100%);stop-opacity:1;"/>
</radialGradient>
<radialGradient id="radial9" gradientUnits="userSpaceOnUse" cx="0" cy="0" fx="0" fy="0" r="1" gradientTransform="matrix(2.294298,-6.46051,4.671874,1.659106,130.009506,31.812651)">
<stop offset="0" style="stop-color:rgb(100%,83.921569%,0%);stop-opacity:1;"/>
<stop offset="0.484375" style="stop-color:rgb(100%,41.176471%,18.823529%);stop-opacity:1;"/>
<stop offset="0.734375" style="stop-color:rgb(99.607843%,23.137255%,21.176471%);stop-opacity:1;"/>
<stop offset="1" style="stop-color:rgb(99.607843%,23.137255%,21.176471%);stop-opacity:0;"/>
</radialGradient>
<radialGradient id="radial10" gradientUnits="userSpaceOnUse" cx="0" cy="0" fx="0" fy="0" r="1" gradientTransform="matrix(-5.64954,-17.370992,26.519373,-8.624854,127.220497,32.044899)">
<stop offset="0.24392" style="stop-color:rgb(100%,10.588235%,56.470588%);stop-opacity:1;"/>
<stop offset="0.436673" style="stop-color:rgb(97.254902%,0.784314%,38.039216%);stop-opacity:1;"/>
<stop offset="0.688476" style="stop-color:rgb(92.941176%,0%,75.294118%);stop-opacity:1;"/>
<stop offset="0.776787" style="stop-color:rgb(77.254902%,0%,91.372549%);stop-opacity:1;"/>
<stop offset="0.893155" style="stop-color:rgb(43.921569%,9.019608%,100%);stop-opacity:1;"/>
</radialGradient>
<radialGradient id="radial11" gradientUnits="userSpaceOnUse" cx="0" cy="0" fx="0" fy="0" r="1" gradientTransform="matrix(1.887574,-6.244186,3.965969,1.198885,123.6185,31.61235)">
<stop offset="0" style="stop-color:rgb(100%,83.921569%,0%);stop-opacity:1;"/>
<stop offset="0.484375" style="stop-color:rgb(100%,41.176471%,18.823529%);stop-opacity:1;"/>
<stop offset="0.734375" style="stop-color:rgb(99.607843%,23.137255%,21.176471%);stop-opacity:1;"/>
<stop offset="1" style="stop-color:rgb(99.607843%,23.137255%,21.176471%);stop-opacity:0;"/>
</radialGradient>
<radialGradient id="radial12" gradientUnits="userSpaceOnUse" cx="0" cy="0" fx="0" fy="0" r="1" gradientTransform="matrix(-7.788725,-17.972856,34.036345,-14.750005,121.194,32.260201)">
<stop offset="0.24392" style="stop-color:rgb(100%,10.588235%,56.470588%);stop-opacity:1;"/>
<stop offset="0.436673" style="stop-color:rgb(97.254902%,0.784314%,38.039216%);stop-opacity:1;"/>
<stop offset="0.688476" style="stop-color:rgb(92.941176%,0%,75.294118%);stop-opacity:1;"/>
<stop offset="0.776787" style="stop-color:rgb(77.254902%,0%,91.372549%);stop-opacity:1;"/>
<stop offset="0.893155" style="stop-color:rgb(43.921569%,9.019608%,100%);stop-opacity:1;"/>
</radialGradient>
<radialGradient id="radial13" gradientUnits="userSpaceOnUse" cx="0" cy="0" fx="0" fy="0" r="1" gradientTransform="matrix(2.602329,-6.460527,5.134324,2.068129,116.2285,31.812651)">
<stop offset="0" style="stop-color:rgb(100%,83.921569%,0%);stop-opacity:1;"/>
<stop offset="0.484375" style="stop-color:rgb(100%,41.176471%,18.823529%);stop-opacity:1;"/>
<stop offset="0.734375" style="stop-color:rgb(99.607843%,23.137255%,21.176471%);stop-opacity:1;"/>
<stop offset="1" style="stop-color:rgb(99.607843%,23.137255%,21.176471%);stop-opacity:0;"/>
</radialGradient>
<radialGradient id="radial14" gradientUnits="userSpaceOnUse" cx="0" cy="0" fx="0" fy="0" r="1" gradientTransform="matrix(-8.225969,-17.972874,35.303021,-16.15777,113.345001,32.260201)">
<stop offset="0.24392" style="stop-color:rgb(100%,10.588235%,56.470588%);stop-opacity:1;"/>
<stop offset="0.436673" style="stop-color:rgb(97.254902%,0.784314%,38.039216%);stop-opacity:1;"/>
<stop offset="0.688476" style="stop-color:rgb(92.941176%,0%,75.294118%);stop-opacity:1;"/>
<stop offset="0.776787" style="stop-color:rgb(77.254902%,0%,91.372549%);stop-opacity:1;"/>
<stop offset="0.893155" style="stop-color:rgb(43.921569%,9.019608%,100%);stop-opacity:1;"/>
</radialGradient>
<radialGradient id="radial15" gradientUnits="userSpaceOnUse" cx="0" cy="0" fx="0" fy="0" r="1" gradientTransform="matrix(2.74843,-6.460532,5.336609,2.270292,108.100502,31.812651)">
<stop offset="0" style="stop-color:rgb(100%,83.921569%,0%);stop-opacity:1;"/>
<stop offset="0.484375" style="stop-color:rgb(100%,41.176471%,18.823529%);stop-opacity:1;"/>
<stop offset="0.734375" style="stop-color:rgb(99.607843%,23.137255%,21.176471%);stop-opacity:1;"/>
<stop offset="1" style="stop-color:rgb(99.607843%,23.137255%,21.176471%);stop-opacity:0;"/>
</radialGradient>
<radialGradient id="radial16" gradientUnits="userSpaceOnUse" cx="0" cy="0" fx="0" fy="0" r="1" gradientTransform="matrix(-6.825451,-17.370971,30.690286,-12.058914,105.216003,32.044899)">
<stop offset="0.24392" style="stop-color:rgb(100%,10.588235%,56.470588%);stop-opacity:1;"/>
<stop offset="0.436673" style="stop-color:rgb(97.254902%,0.784314%,38.039216%);stop-opacity:1;"/>
<stop offset="0.688476" style="stop-color:rgb(92.941176%,0%,75.294118%);stop-opacity:1;"/>
<stop offset="0.776787" style="stop-color:rgb(77.254902%,0%,91.372549%);stop-opacity:1;"/>
<stop offset="0.893155" style="stop-color:rgb(43.921569%,9.019608%,100%);stop-opacity:1;"/>
</radialGradient>
<radialGradient id="radial17" gradientUnits="userSpaceOnUse" cx="0" cy="0" fx="0" fy="0" r="1" gradientTransform="matrix(2.280485,-6.244142,4.613943,1.685104,100.864502,31.61235)">
<stop offset="0" style="stop-color:rgb(100%,83.921569%,0%);stop-opacity:1;"/>
<stop offset="0.484375" style="stop-color:rgb(100%,41.176471%,18.823529%);stop-opacity:1;"/>
<stop offset="0.734375" style="stop-color:rgb(99.607843%,23.137255%,21.176471%);stop-opacity:1;"/>
<stop offset="1" style="stop-color:rgb(99.607843%,23.137255%,21.176471%);stop-opacity:0;"/>
</radialGradient>
<radialGradient id="radial18" gradientUnits="userSpaceOnUse" cx="0" cy="0" fx="0" fy="0" r="1" gradientTransform="matrix(-6.423655,-17.370986,29.331689,-10.846629,98.045502,32.044899)">
<stop offset="0.24392" style="stop-color:rgb(100%,10.588235%,56.470588%);stop-opacity:1;"/>
<stop offset="0.436673" style="stop-color:rgb(97.254902%,0.784314%,38.039216%);stop-opacity:1;"/>
<stop offset="0.688476" style="stop-color:rgb(92.941176%,0%,75.294118%);stop-opacity:1;"/>
<stop offset="0.776787" style="stop-color:rgb(77.254902%,0%,91.372549%);stop-opacity:1;"/>
<stop offset="0.893155" style="stop-color:rgb(43.921569%,9.019608%,100%);stop-opacity:1;"/>
</radialGradient>
<radialGradient id="radial19" gradientUnits="userSpaceOnUse" cx="0" cy="0" fx="0" fy="0" r="1" gradientTransform="matrix(2.146218,-6.244149,4.401498,1.512868,93.949997,31.61235)">
<stop offset="0" style="stop-color:rgb(100%,83.921569%,0%);stop-opacity:1;"/>
<stop offset="0.484375" style="stop-color:rgb(100%,41.176471%,18.823529%);stop-opacity:1;"/>
<stop offset="0.734375" style="stop-color:rgb(99.607843%,23.137255%,21.176471%);stop-opacity:1;"/>
<stop offset="1" style="stop-color:rgb(99.607843%,23.137255%,21.176471%);stop-opacity:0;"/>
</radialGradient>
<radialGradient id="radial20" gradientUnits="userSpaceOnUse" cx="0" cy="0" fx="0" fy="0" r="1" gradientTransform="matrix(-6.423655,-17.370986,29.331689,-10.846629,117.880997,21.1001)">
<stop offset="0.24392" style="stop-color:rgb(100%,10.588235%,56.470588%);stop-opacity:1;"/>
<stop offset="0.436673" style="stop-color:rgb(97.254902%,0.784314%,38.039216%);stop-opacity:1;"/>
<stop offset="0.688476" style="stop-color:rgb(92.941176%,0%,75.294118%);stop-opacity:1;"/>
<stop offset="0.776787" style="stop-color:rgb(77.254902%,0%,91.372549%);stop-opacity:1;"/>
<stop offset="0.893155" style="stop-color:rgb(43.921569%,9.019608%,100%);stop-opacity:1;"/>
</radialGradient>
<radialGradient id="radial21" gradientUnits="userSpaceOnUse" cx="0" cy="0" fx="0" fy="0" r="1" gradientTransform="matrix(2.146218,-6.244149,4.401498,1.512868,113.786003,20.6675)">
<stop offset="0" style="stop-color:rgb(100%,83.921569%,0%);stop-opacity:1;"/>
<stop offset="0.484375" style="stop-color:rgb(100%,41.176471%,18.823529%);stop-opacity:1;"/>
<stop offset="0.734375" style="stop-color:rgb(99.607843%,23.137255%,21.176471%);stop-opacity:1;"/>
<stop offset="1" style="stop-color:rgb(99.607843%,23.137255%,21.176471%);stop-opacity:0;"/>
</radialGradient>
<radialGradient id="radial22" gradientUnits="userSpaceOnUse" cx="0" cy="0" fx="0" fy="0" r="1" gradientTransform="matrix(-5.64954,-17.370992,26.519373,-8.624854,110.847504,21.1001)">
<stop offset="0.24392" style="stop-color:rgb(100%,10.588235%,56.470588%);stop-opacity:1;"/>
<stop offset="0.436673" style="stop-color:rgb(97.254902%,0.784314%,38.039216%);stop-opacity:1;"/>
<stop offset="0.688476" style="stop-color:rgb(92.941176%,0%,75.294118%);stop-opacity:1;"/>
<stop offset="0.776787" style="stop-color:rgb(77.254902%,0%,91.372549%);stop-opacity:1;"/>
<stop offset="0.893155" style="stop-color:rgb(43.921569%,9.019608%,100%);stop-opacity:1;"/>
</radialGradient>
<radialGradient id="radial23" gradientUnits="userSpaceOnUse" cx="0" cy="0" fx="0" fy="0" r="1" gradientTransform="matrix(1.887574,-6.244186,3.965969,1.198885,107.245499,20.6675)">
<stop offset="0" style="stop-color:rgb(100%,83.921569%,0%);stop-opacity:1;"/>
<stop offset="0.484375" style="stop-color:rgb(100%,41.176471%,18.823529%);stop-opacity:1;"/>
<stop offset="0.734375" style="stop-color:rgb(99.607843%,23.137255%,21.176471%);stop-opacity:1;"/>
<stop offset="1" style="stop-color:rgb(99.607843%,23.137255%,21.176471%);stop-opacity:0;"/>
</radialGradient>
<radialGradient id="radial24" gradientUnits="userSpaceOnUse" cx="0" cy="0" fx="0" fy="0" r="1" gradientTransform="matrix(-6.718962,-17.371057,30.337562,-11.734285,104.877998,21.1001)">
<stop offset="0.24392" style="stop-color:rgb(100%,10.588235%,56.470588%);stop-opacity:1;"/>
<stop offset="0.436673" style="stop-color:rgb(97.254902%,0.784314%,38.039216%);stop-opacity:1;"/>
<stop offset="0.688476" style="stop-color:rgb(92.941176%,0%,75.294118%);stop-opacity:1;"/>
<stop offset="0.776787" style="stop-color:rgb(77.254902%,0%,91.372549%);stop-opacity:1;"/>
<stop offset="0.893155" style="stop-color:rgb(43.921569%,9.019608%,100%);stop-opacity:1;"/>
</radialGradient>
<radialGradient id="radial25" gradientUnits="userSpaceOnUse" cx="0" cy="0" fx="0" fy="0" r="1" gradientTransform="matrix(2.244944,-6.244151,4.558627,1.638951,100.594498,20.6675)">
<stop offset="0" style="stop-color:rgb(100%,83.921569%,0%);stop-opacity:1;"/>
<stop offset="0.484375" style="stop-color:rgb(100%,41.176471%,18.823529%);stop-opacity:1;"/>
<stop offset="0.734375" style="stop-color:rgb(99.607843%,23.137255%,21.176471%);stop-opacity:1;"/>
<stop offset="1" style="stop-color:rgb(99.607843%,23.137255%,21.176471%);stop-opacity:0;"/>
</radialGradient>
<radialGradient id="radial26" gradientUnits="userSpaceOnUse" cx="0" cy="0" fx="0" fy="0" r="1" gradientTransform="matrix(-6.866777,-17.972895,31.10301,-11.883307,98.178497,21.31535)">
<stop offset="0.24392" style="stop-color:rgb(100%,10.588235%,56.470588%);stop-opacity:1;"/>
<stop offset="0.436673" style="stop-color:rgb(97.254902%,0.784314%,38.039216%);stop-opacity:1;"/>
<stop offset="0.688476" style="stop-color:rgb(92.941176%,0%,75.294118%);stop-opacity:1;"/>
<stop offset="0.776787" style="stop-color:rgb(77.254902%,0%,91.372549%);stop-opacity:1;"/>
<stop offset="0.893155" style="stop-color:rgb(43.921569%,9.019608%,100%);stop-opacity:1;"/>
</radialGradient>
<radialGradient id="radial27" gradientUnits="userSpaceOnUse" cx="0" cy="0" fx="0" fy="0" r="1" gradientTransform="matrix(2.294298,-6.46051,4.671874,1.659106,93.800499,20.8678)">
<stop offset="0" style="stop-color:rgb(100%,83.921569%,0%);stop-opacity:1;"/>
<stop offset="0.484375" style="stop-color:rgb(100%,41.176471%,18.823529%);stop-opacity:1;"/>
<stop offset="0.734375" style="stop-color:rgb(99.607843%,23.137255%,21.176471%);stop-opacity:1;"/>
<stop offset="1" style="stop-color:rgb(99.607843%,23.137255%,21.176471%);stop-opacity:0;"/>
</radialGradient>
</defs>
<g id="surface1">
<path style="fill:none;stroke-width:1;stroke-linecap:butt;stroke-linejoin:miter;stroke:url(#radial0);stroke-miterlimit:4;" d="M 0 52 L 96 52 " transform="matrix(0.5,0,0,0.5,0,0)"/>
<path style="fill:none;stroke-width:1;stroke-linecap:butt;stroke-linejoin:miter;stroke:url(#radial1);stroke-miterlimit:4;" d="M 0 52 L 96 52 " transform="matrix(0.5,0,0,0.5,0,0)"/>
<path style="fill:none;stroke-width:1;stroke-linecap:butt;stroke-linejoin:miter;stroke:url(#radial2);stroke-miterlimit:4;" d="M 294 52 L 390 52 " transform="matrix(0.5,0,0,0.5,0,0)"/>
<path style="fill:none;stroke-width:1;stroke-linecap:butt;stroke-linejoin:miter;stroke:url(#radial3);stroke-miterlimit:4;" d="M 294 52 L 390 52 " transform="matrix(0.5,0,0,0.5,0,0)"/>
<path style=" stroke:none;fill-rule:nonzero;fill:url(#radial4);" d="M 64.207031 22.988281 L 64.207031 17.058594 L 68.984375 17.058594 C 72.75 17.058594 75.289062 14.828125 75.289062 11.589844 C 75.289062 8.40625 73.023438 6.3125 68.929688 6.3125 C 65.109375 6.3125 62.570312 8.570312 62.351562 11.996094 L 54.765625 11.996094 C 55.066406 4.734375 60.742188 0 69.285156 0 C 77.472656 0 83.066406 4.191406 83.066406 10.472656 C 83.066406 15.289062 79.765625 18.773438 74.933594 19.644531 L 74.933594 19.804688 C 80.800781 20.296875 84.59375 23.832031 84.59375 29.273438 C 84.59375 36.320312 78.179688 41 69.09375 41 C 60.195312 41 54.382812 36.128906 54 28.894531 L 61.886719 28.894531 C 62.132812 32.210938 64.863281 34.390625 69.203125 34.390625 C 73.324219 34.390625 76.214844 32.078125 76.214844 28.757812 C 76.214844 25.164062 73.515625 22.988281 69.066406 22.988281 Z M 64.207031 22.988281 "/>
<path style=" stroke:none;fill-rule:nonzero;fill:url(#radial5);" d="M 64.207031 22.988281 L 64.207031 17.058594 L 68.984375 17.058594 C 72.75 17.058594 75.289062 14.828125 75.289062 11.589844 C 75.289062 8.40625 73.023438 6.3125 68.929688 6.3125 C 65.109375 6.3125 62.570312 8.570312 62.351562 11.996094 L 54.765625 11.996094 C 55.066406 4.734375 60.742188 0 69.285156 0 C 77.472656 0 83.066406 4.191406 83.066406 10.472656 C 83.066406 15.289062 79.765625 18.773438 74.933594 19.644531 L 74.933594 19.804688 C 80.800781 20.296875 84.59375 23.832031 84.59375 29.273438 C 84.59375 36.320312 78.179688 41 69.09375 41 C 60.195312 41 54.382812 36.128906 54 28.894531 L 61.886719 28.894531 C 62.132812 32.210938 64.863281 34.390625 69.203125 34.390625 C 73.324219 34.390625 76.214844 32.078125 76.214844 28.757812 C 76.214844 25.164062 73.515625 22.988281 69.066406 22.988281 Z M 64.207031 22.988281 "/>
<path style=" stroke:none;fill-rule:nonzero;fill:url(#radial6);" d="M 134.769531 27.484375 L 136.332031 27.484375 C 136.40625 28.121094 137.070312 28.539062 137.929688 28.539062 C 138.792969 28.539062 139.382812 28.125 139.382812 27.558594 C 139.382812 27.058594 139.011719 26.78125 138.078125 26.570312 L 137.070312 26.351562 C 135.644531 26.046875 134.941406 25.328125 134.941406 24.199219 C 134.941406 22.777344 136.175781 21.835938 137.902344 21.835938 C 139.703125 21.835938 140.835938 22.761719 140.859375 24.15625 L 139.34375 24.15625 C 139.289062 23.503906 138.714844 23.109375 137.90625 23.109375 C 137.109375 23.109375 136.570312 23.488281 136.570312 24.058594 C 136.570312 24.535156 136.945312 24.804688 137.835938 25.007812 L 138.777344 25.203125 C 140.324219 25.535156 141 26.199219 141 27.375 C 141 28.871094 139.78125 29.816406 137.863281 29.816406 C 136.003906 29.816406 134.820312 28.933594 134.769531 27.484375 Z M 134.769531 27.484375 "/>
<path style=" stroke:none;fill-rule:nonzero;fill:url(#radial7);" d="M 134.769531 27.484375 L 136.332031 27.484375 C 136.40625 28.121094 137.070312 28.539062 137.929688 28.539062 C 138.792969 28.539062 139.382812 28.125 139.382812 27.558594 C 139.382812 27.058594 139.011719 26.78125 138.078125 26.570312 L 137.070312 26.351562 C 135.644531 26.046875 134.941406 25.328125 134.941406 24.199219 C 134.941406 22.777344 136.175781 21.835938 137.902344 21.835938 C 139.703125 21.835938 140.835938 22.761719 140.859375 24.15625 L 139.34375 24.15625 C 139.289062 23.503906 138.714844 23.109375 137.90625 23.109375 C 137.109375 23.109375 136.570312 23.488281 136.570312 24.058594 C 136.570312 24.535156 136.945312 24.804688 137.835938 25.007812 L 138.777344 25.203125 C 140.324219 25.535156 141 26.199219 141 27.375 C 141 28.871094 139.78125 29.816406 137.863281 29.816406 C 136.003906 29.816406 134.820312 28.933594 134.769531 27.484375 Z M 134.769531 27.484375 "/>
<path style=" stroke:none;fill-rule:nonzero;fill:url(#radial8);" d="M 127.832031 27.484375 L 129.394531 27.484375 C 129.46875 28.121094 130.132812 28.539062 130.992188 28.539062 C 131.855469 28.539062 132.445312 28.125 132.445312 27.558594 C 132.445312 27.058594 132.074219 26.78125 131.140625 26.570312 L 130.132812 26.351562 C 128.707031 26.046875 128.003906 25.328125 128.003906 24.199219 C 128.003906 22.777344 129.238281 21.835938 130.964844 21.835938 C 132.765625 21.835938 133.898438 22.761719 133.921875 24.15625 L 132.40625 24.15625 C 132.351562 23.503906 131.777344 23.109375 130.96875 23.109375 C 130.171875 23.109375 129.632812 23.488281 129.632812 24.058594 C 129.632812 24.535156 130.007812 24.804688 130.898438 25.007812 L 131.839844 25.203125 C 133.386719 25.535156 134.0625 26.199219 134.0625 27.375 C 134.0625 28.871094 132.84375 29.816406 130.925781 29.816406 C 129.066406 29.816406 127.882812 28.933594 127.832031 27.484375 Z M 127.832031 27.484375 "/>
<path style=" stroke:none;fill-rule:nonzero;fill:url(#radial9);" d="M 127.832031 27.484375 L 129.394531 27.484375 C 129.46875 28.121094 130.132812 28.539062 130.992188 28.539062 C 131.855469 28.539062 132.445312 28.125 132.445312 27.558594 C 132.445312 27.058594 132.074219 26.78125 131.140625 26.570312 L 130.132812 26.351562 C 128.707031 26.046875 128.003906 25.328125 128.003906 24.199219 C 128.003906 22.777344 129.238281 21.835938 130.964844 21.835938 C 132.765625 21.835938 133.898438 22.761719 133.921875 24.15625 L 132.40625 24.15625 C 132.351562 23.503906 131.777344 23.109375 130.96875 23.109375 C 130.171875 23.109375 129.632812 23.488281 129.632812 24.058594 C 129.632812 24.535156 130.007812 24.804688 130.898438 25.007812 L 131.839844 25.203125 C 133.386719 25.535156 134.0625 26.199219 134.0625 27.375 C 134.0625 28.871094 132.84375 29.816406 130.925781 29.816406 C 129.066406 29.816406 127.882812 28.933594 127.832031 27.484375 Z M 127.832031 27.484375 "/>
<path style=" stroke:none;fill-rule:nonzero;fill:url(#radial10);" d="M 126.953125 28.347656 L 126.953125 29.683594 L 121.828125 29.683594 L 121.828125 21.96875 L 126.953125 21.96875 L 126.953125 23.300781 L 123.445312 23.300781 L 123.445312 25.160156 L 126.753906 25.160156 L 126.753906 26.402344 L 123.445312 26.402344 L 123.445312 28.347656 Z M 126.953125 28.347656 "/>
<path style=" stroke:none;fill-rule:nonzero;fill:url(#radial11);" d="M 126.953125 28.347656 L 126.953125 29.683594 L 121.828125 29.683594 L 121.828125 21.96875 L 126.953125 21.96875 L 126.953125 23.300781 L 123.445312 23.300781 L 123.445312 25.160156 L 126.753906 25.160156 L 126.753906 26.402344 L 123.445312 26.402344 L 123.445312 28.347656 Z M 126.953125 28.347656 "/>
<path style=" stroke:none;fill-rule:nonzero;fill:url(#radial12);" d="M 117.421875 29.816406 C 115.167969 29.816406 113.761719 28.3125 113.761719 25.824219 C 113.761719 23.339844 115.179688 21.835938 117.421875 21.835938 C 119.28125 21.835938 120.695312 23.011719 120.820312 24.738281 L 119.242188 24.738281 C 119.09375 23.792969 118.363281 23.171875 117.421875 23.171875 C 116.199219 23.171875 115.410156 24.195312 115.410156 25.816406 C 115.410156 27.464844 116.1875 28.480469 117.425781 28.480469 C 118.386719 28.480469 119.078125 27.917969 119.25 27.003906 L 120.824219 27.003906 C 120.644531 28.726562 119.320312 29.816406 117.421875 29.816406 Z M 117.421875 29.816406 "/>
<path style=" stroke:none;fill-rule:nonzero;fill:url(#radial13);" d="M 117.421875 29.816406 C 115.167969 29.816406 113.761719 28.3125 113.761719 25.824219 C 113.761719 23.339844 115.179688 21.835938 117.421875 21.835938 C 119.28125 21.835938 120.695312 23.011719 120.820312 24.738281 L 119.242188 24.738281 C 119.09375 23.792969 118.363281 23.171875 117.421875 23.171875 C 116.199219 23.171875 115.410156 24.195312 115.410156 25.816406 C 115.410156 27.464844 116.1875 28.480469 117.425781 28.480469 C 118.386719 28.480469 119.078125 27.917969 119.25 27.003906 L 120.824219 27.003906 C 120.644531 28.726562 119.320312 29.816406 117.421875 29.816406 Z M 117.421875 29.816406 "/>
<path style=" stroke:none;fill-rule:nonzero;fill:url(#radial14);" d="M 109.222656 21.835938 C 111.511719 21.835938 112.957031 23.371094 112.957031 25.828125 C 112.957031 28.28125 111.511719 29.816406 109.222656 29.816406 C 106.929688 29.816406 105.492188 28.28125 105.492188 25.828125 C 105.492188 23.371094 106.929688 21.835938 109.222656 21.835938 Z M 109.222656 23.183594 C 107.960938 23.183594 107.144531 24.210938 107.144531 25.828125 C 107.144531 27.441406 107.953125 28.464844 109.222656 28.464844 C 110.488281 28.464844 111.300781 27.441406 111.300781 25.828125 C 111.300781 24.210938 110.488281 23.183594 109.222656 23.183594 Z M 109.222656 23.183594 "/>
<path style=" stroke:none;fill-rule:nonzero;fill:url(#radial15);" d="M 109.222656 21.835938 C 111.511719 21.835938 112.957031 23.371094 112.957031 25.828125 C 112.957031 28.28125 111.511719 29.816406 109.222656 29.816406 C 106.929688 29.816406 105.492188 28.28125 105.492188 25.828125 C 105.492188 23.371094 106.929688 21.835938 109.222656 21.835938 Z M 109.222656 23.183594 C 107.960938 23.183594 107.144531 24.210938 107.144531 25.828125 C 107.144531 27.441406 107.953125 28.464844 109.222656 28.464844 C 110.488281 28.464844 111.300781 27.441406 111.300781 25.828125 C 111.300781 24.210938 110.488281 23.183594 109.222656 23.183594 Z M 109.222656 23.183594 "/>
<path style=" stroke:none;fill-rule:nonzero;fill:url(#radial16);" d="M 100.320312 23.230469 L 100.320312 25.691406 L 101.714844 25.691406 C 102.527344 25.691406 103.007812 25.226562 103.007812 24.460938 C 103.007812 23.714844 102.503906 23.230469 101.699219 23.230469 Z M 100.320312 26.859375 L 100.320312 29.683594 L 98.699219 29.683594 L 98.699219 21.96875 L 101.871094 21.96875 C 103.648438 21.96875 104.667969 22.90625 104.667969 24.429688 C 104.667969 25.417969 104.152344 26.273438 103.261719 26.621094 L 104.894531 29.683594 L 103.058594 29.683594 L 101.617188 26.859375 Z M 100.320312 26.859375 "/>
<path style=" stroke:none;fill-rule:nonzero;fill:url(#radial17);" d="M 100.320312 23.230469 L 100.320312 25.691406 L 101.714844 25.691406 C 102.527344 25.691406 103.007812 25.226562 103.007812 24.460938 C 103.007812 23.714844 102.503906 23.230469 101.699219 23.230469 Z M 100.320312 26.859375 L 100.320312 29.683594 L 98.699219 29.683594 L 98.699219 21.96875 L 101.871094 21.96875 C 103.648438 21.96875 104.667969 22.90625 104.667969 24.429688 C 104.667969 25.417969 104.152344 26.273438 103.261719 26.621094 L 104.894531 29.683594 L 103.058594 29.683594 L 101.617188 26.859375 Z M 100.320312 26.859375 "/>
<path style=" stroke:none;fill-rule:nonzero;fill:url(#radial18);" d="M 91.914062 21.96875 L 95.0625 21.96875 C 96.648438 21.96875 97.742188 23.023438 97.742188 24.609375 C 97.742188 26.191406 96.609375 27.25 94.980469 27.25 L 93.53125 27.25 L 93.53125 29.683594 L 91.914062 29.683594 Z M 93.53125 23.246094 L 93.53125 25.988281 L 94.628906 25.988281 C 95.554688 25.988281 96.09375 25.496094 96.09375 24.617188 C 96.09375 23.738281 95.558594 23.246094 94.632812 23.246094 Z M 93.53125 23.246094 "/>
<path style=" stroke:none;fill-rule:nonzero;fill:url(#radial19);" d="M 91.914062 21.96875 L 95.0625 21.96875 C 96.648438 21.96875 97.742188 23.023438 97.742188 24.609375 C 97.742188 26.191406 96.609375 27.25 94.980469 27.25 L 93.53125 27.25 L 93.53125 29.683594 L 91.914062 29.683594 Z M 93.53125 23.246094 L 93.53125 25.988281 L 94.628906 25.988281 C 95.554688 25.988281 96.09375 25.496094 96.09375 24.617188 C 96.09375 23.738281 95.558594 23.246094 94.632812 23.246094 Z M 93.53125 23.246094 "/>
<path style=" stroke:none;fill-rule:nonzero;fill:url(#radial20);" d="M 111.75 11.027344 L 114.898438 11.027344 C 116.484375 11.027344 117.578125 12.078125 117.578125 13.664062 C 117.578125 15.246094 116.445312 16.304688 114.816406 16.304688 L 113.367188 16.304688 L 113.367188 18.738281 L 111.75 18.738281 Z M 113.367188 12.304688 L 113.367188 15.042969 L 114.460938 15.042969 C 115.390625 15.042969 115.929688 14.554688 115.929688 13.671875 C 115.929688 12.792969 115.394531 12.304688 114.46875 12.304688 Z M 113.367188 12.304688 "/>
<path style=" stroke:none;fill-rule:nonzero;fill:url(#radial21);" d="M 111.75 11.027344 L 114.898438 11.027344 C 116.484375 11.027344 117.578125 12.078125 117.578125 13.664062 C 117.578125 15.246094 116.445312 16.304688 114.816406 16.304688 L 113.367188 16.304688 L 113.367188 18.738281 L 111.75 18.738281 Z M 113.367188 12.304688 L 113.367188 15.042969 L 114.460938 15.042969 C 115.390625 15.042969 115.929688 14.554688 115.929688 13.671875 C 115.929688 12.792969 115.394531 12.304688 114.46875 12.304688 Z M 113.367188 12.304688 "/>
<path style=" stroke:none;fill-rule:nonzero;fill:url(#radial22);" d="M 110.582031 17.402344 L 110.582031 18.738281 L 105.453125 18.738281 L 105.453125 11.027344 L 110.582031 11.027344 L 110.582031 12.355469 L 107.074219 12.355469 L 107.074219 14.214844 L 110.382812 14.214844 L 110.382812 15.457031 L 107.074219 15.457031 L 107.074219 17.402344 Z M 110.582031 17.402344 "/>
<path style=" stroke:none;fill-rule:nonzero;fill:url(#radial23);" d="M 110.582031 17.402344 L 110.582031 18.738281 L 105.453125 18.738281 L 105.453125 11.027344 L 110.582031 11.027344 L 110.582031 12.355469 L 107.074219 12.355469 L 107.074219 14.214844 L 110.382812 14.214844 L 110.382812 15.457031 L 107.074219 15.457031 L 107.074219 17.402344 Z M 110.582031 17.402344 "/>
<path style=" stroke:none;fill-rule:nonzero;fill:url(#radial24);" d="M 102.320312 18.738281 L 100.699219 18.738281 L 100.699219 12.355469 L 98.464844 12.355469 L 98.464844 11.027344 L 104.558594 11.027344 L 104.558594 12.355469 L 102.320312 12.355469 Z M 102.320312 18.738281 "/>
<path style=" stroke:none;fill-rule:nonzero;fill:url(#radial25);" d="M 102.320312 18.738281 L 100.699219 18.738281 L 100.699219 12.355469 L 98.464844 12.355469 L 98.464844 11.027344 L 104.558594 11.027344 L 104.558594 12.355469 L 102.320312 12.355469 Z M 102.320312 18.738281 "/>
<path style=" stroke:none;fill-rule:nonzero;fill:url(#radial26);" d="M 91.625 16.539062 L 93.183594 16.539062 C 93.257812 17.175781 93.925781 17.59375 94.78125 17.59375 C 95.644531 17.59375 96.234375 17.183594 96.234375 16.617188 C 96.234375 16.113281 95.863281 15.835938 94.933594 15.625 L 93.925781 15.40625 C 92.496094 15.101562 91.796875 14.382812 91.796875 13.253906 C 91.796875 11.832031 93.027344 10.890625 94.753906 10.890625 C 96.554688 10.890625 97.6875 11.816406 97.714844 13.210938 L 96.195312 13.210938 C 96.144531 12.558594 95.570312 12.164062 94.761719 12.164062 C 93.960938 12.164062 93.425781 12.542969 93.425781 13.117188 C 93.425781 13.589844 93.800781 13.859375 94.691406 14.0625 L 95.628906 14.257812 C 97.179688 14.589844 97.851562 15.253906 97.851562 16.429688 C 97.851562 17.925781 96.636719 18.871094 94.71875 18.871094 C 92.855469 18.871094 91.671875 17.988281 91.625 16.539062 Z M 91.625 16.539062 "/>
<path style=" stroke:none;fill-rule:nonzero;fill:url(#radial27);" d="M 91.625 16.539062 L 93.183594 16.539062 C 93.257812 17.175781 93.925781 17.59375 94.78125 17.59375 C 95.644531 17.59375 96.234375 17.183594 96.234375 16.617188 C 96.234375 16.113281 95.863281 15.835938 94.933594 15.625 L 93.925781 15.40625 C 92.496094 15.101562 91.796875 14.382812 91.796875 13.253906 C 91.796875 11.832031 93.027344 10.890625 94.753906 10.890625 C 96.554688 10.890625 97.6875 11.816406 97.714844 13.210938 L 96.195312 13.210938 C 96.144531 12.558594 95.570312 12.164062 94.761719 12.164062 C 93.960938 12.164062 93.425781 12.542969 93.425781 13.117188 C 93.425781 13.589844 93.800781 13.859375 94.691406 14.0625 L 95.628906 14.257812 C 97.179688 14.589844 97.851562 15.253906 97.851562 16.429688 C 97.851562 17.925781 96.636719 18.871094 94.71875 18.871094 C 92.855469 18.871094 91.671875 17.988281 91.625 16.539062 Z M 91.625 16.539062 "/>
</g>
</svg>
